<svg version="1.2" xmlns="http://www.w3.org/2000/svg" viewBox="0 0 181 68" width="181" height="68">
	<title>botao_add_cpntato</title>
	<style>
		.s0 { fill: #7451a5 } 
		.s1 { fill: #ffffff } 
	</style>
	<g>
		<path fill-rule="evenodd" class="s0" d="m14 0h153c7.7 0 14 6.3 14 14v40c0 7.7-6.3 14-14 14h-153c-7.7 0-14-6.3-14-14v-40c0-7.7 6.3-14 14-14z"/>
	</g>
	<path class="s1" d="m37.2 35.3h-5.4c-1.5 0-3 0.6-4.1 1.7-1.1 1.1-1.7 2.6-1.7 4.2v1.7q0 0.2 0.1 0.4 0.2 0.1 0.4 0.1h16q0.2 0 0.3-0.1 0.2-0.2 0.2-0.4v-1.7c0-1.6-0.6-3.1-1.7-4.2-1.1-1.1-2.6-1.7-4.1-1.7z"/>
	<path class="s1" d="m34.5 33.4c2.5 0 4.5-2 4.5-4.5 0-2.4-2-4.5-4.5-4.5-2.5 0-4.5 2.1-4.5 4.5 0 2.5 2 4.5 4.5 4.5z"/>
	<path class="s1" d="m45 32h-1.5v-1.5q0-0.4-0.3-0.7-0.3-0.3-0.7-0.3-0.4 0-0.7 0.3-0.3 0.3-0.3 0.7v1.5h-1.5q-0.4 0-0.7 0.3-0.3 0.3-0.3 0.7 0 0.4 0.3 0.7 0.3 0.3 0.7 0.3h1.5v1.5q0 0.4 0.3 0.7 0.3 0.3 0.7 0.3 0.4 0 0.7-0.3 0.3-0.3 0.3-0.7v-1.5h1.5q0.4 0 0.7-0.3 0.3-0.3 0.3-0.7 0-0.4-0.3-0.7-0.3-0.3-0.7-0.3z"/>
	<path class="s1" d="m56.1 41v-12.3h3.3l3.9 8.6h0.3v-8.6h2.5v12.3h-3.2l-4-8.8h-0.3v8.8zm15.9 0.2q-1.5 0-2.4-0.5-1-0.5-1.4-1.6-0.4-1-0.4-2.7 0-1.6 0.4-2.6 0.5-1 1.4-1.5 1-0.5 2.4-0.5 1.5 0 2.4 0.5 1 0.5 1.4 1.5 0.5 1 0.5 2.6 0 1.7-0.5 2.7-0.4 1.1-1.3 1.6-0.9 0.5-2.5 0.5zm0-2q0.8 0 1.2-0.3 0.3-0.2 0.5-0.9 0.1-0.6 0.1-1.6 0-1-0.2-1.6-0.1-0.5-0.5-0.8-0.4-0.3-1.1-0.3-0.7 0-1.1 0.3-0.3 0.3-0.5 0.8-0.2 0.6-0.2 1.6 0 1 0.2 1.6 0.1 0.7 0.5 0.9 0.4 0.3 1.1 0.3zm7.2 1.8l-2.2-9h2.6l1.5 7h0.5l1.6-7h2.4l-2.1 9zm11.4 0.2q-1.5 0-2.4-0.5-1-0.5-1.4-1.6-0.4-1-0.4-2.7 0-1.6 0.4-2.6 0.5-1 1.4-1.5 0.9-0.5 2.4-0.5 1.5 0 2.4 0.5 1 0.5 1.4 1.5 0.5 1 0.5 2.6 0 1.7-0.5 2.7-0.4 1.1-1.3 1.6-0.9 0.5-2.5 0.5zm0-2q0.8 0 1.2-0.3 0.3-0.2 0.5-0.9 0.1-0.6 0.1-1.6 0-1-0.2-1.6-0.1-0.5-0.5-0.8-0.4-0.3-1.1-0.3-0.7 0-1.1 0.3-0.3 0.3-0.5 0.8-0.2 0.6-0.2 1.6 0 1 0.2 1.6 0.1 0.7 0.5 0.9 0.4 0.3 1.1 0.3zm14.4 2q-1.5 0-2.4-0.4-0.9-0.3-1.4-1.1-0.6-0.8-0.8-2-0.2-1.2-0.2-2.8 0-1.7 0.2-2.9 0.2-1.2 0.8-2 0.5-0.8 1.4-1.1 1-0.4 2.5-0.4 0.6 0 1.2 0.1 0.6 0 1.2 0.1 0.7 0.1 1.1 0.2l-0.1 2q-0.3-0.1-0.9-0.1-0.5-0.1-1.1-0.1-0.5-0.1-1-0.1-0.9 0-1.4 0.3-0.6 0.2-0.9 0.7-0.3 0.5-0.4 1.3-0.1 0.8-0.1 2 0 1.1 0.1 1.9 0.1 0.8 0.4 1.3 0.3 0.5 0.8 0.7 0.6 0.3 1.5 0.3 0.7 0 1.6-0.1 0.9-0.1 1.4-0.2l0.1 2q-0.4 0.1-1 0.2-0.6 0.1-1.3 0.1-0.7 0.1-1.3 0.1zm8.9 0q-1.6 0-2.5-0.5-0.9-0.5-1.3-1.6-0.4-1-0.4-2.7 0-1.6 0.4-2.6 0.4-1 1.4-1.5 0.9-0.5 2.4-0.5 1.5 0 2.4 0.5 0.9 0.5 1.3 1.5 0.5 1 0.5 2.6 0 1.7-0.4 2.7-0.4 1.1-1.4 1.6-0.9 0.5-2.4 0.5zm0-2q0.7 0 1.1-0.3 0.4-0.2 0.5-0.9 0.1-0.6 0.1-1.6 0-1-0.1-1.6-0.2-0.5-0.6-0.8-0.3-0.3-1-0.3-0.7 0-1.1 0.3-0.4 0.3-0.6 0.8-0.1 0.6-0.1 1.6 0 1 0.1 1.6 0.2 0.7 0.5 0.9 0.4 0.3 1.2 0.3zm5.8 1.8v-9h2.4v0.5q0.3-0.1 0.7-0.3 0.4-0.2 0.9-0.3 0.5-0.1 0.9-0.1 0.9 0 1.5 0.2 0.7 0.3 1 0.8 0.4 0.5 0.6 1.4 0.1 0.9 0.1 2.1v4.7h-2.4v-4.6q0-0.9-0.1-1.4-0.1-0.6-0.4-0.9-0.3-0.2-0.9-0.2-0.3 0-0.7 0-0.3 0.1-0.7 0.2-0.3 0.1-0.5 0.2v6.7zm13.1 0.2q-1 0-1.6-0.3-0.6-0.3-0.9-1-0.2-0.7-0.2-2v-3.9h-1.1v-2h1.1v-2.4h2.4v2.4h2.3v2h-2.3v3.3q0 0.7 0 1.1 0.1 0.4 0.3 0.6 0.2 0.1 0.7 0.1 0.1 0 0.4 0 0.2 0 0.5 0 0.2 0 0.4-0.1v2q-0.2 0-0.6 0.1-0.4 0-0.8 0.1-0.3 0-0.6 0zm5.7 0q-1.4 0-2.2-0.7-0.7-0.7-0.7-2.2 0-1 0.4-1.5 0.4-0.6 1.1-0.9 0.7-0.2 1.7-0.3l2.2-0.2v-0.5q0-0.7-0.3-0.9-0.3-0.3-1-0.3-0.5 0-1.1 0-0.7 0.1-1.3 0.1-0.7 0.1-1.1 0.1l-0.1-1.6q0.5-0.2 1.1-0.3 0.7-0.1 1.4-0.2 0.7 0 1.3 0 1.2 0 2 0.3 0.7 0.2 1.1 0.9 0.4 0.7 0.4 1.8v4.1q0.1 0.2 0.3 0.4 0.2 0.1 0.5 0.2v1.6q-0.3 0-0.6 0-0.3 0-0.5 0-0.3 0-0.5 0-0.4-0.1-0.7-0.2-0.3-0.2-0.5-0.4-0.3 0.2-0.7 0.3-0.5 0.2-1.1 0.3-0.6 0.1-1.1 0.1zm0.5-1.8q0.4 0 0.8-0.1 0.3 0 0.7-0.1 0.3-0.1 0.5-0.2v-2.1l-1.8 0.2q-0.6 0-0.9 0.3-0.2 0.3-0.2 0.9 0 0.5 0.2 0.8 0.2 0.3 0.7 0.3zm9.6 1.8q-1 0-1.6-0.3-0.6-0.3-0.9-1-0.2-0.7-0.2-2v-3.9h-1.1v-2h1.1v-2.4h2.4v2.4h2.3v2h-2.3v3.3q0 0.7 0 1.1 0.1 0.4 0.3 0.6 0.2 0.1 0.7 0.1 0.1 0 0.3 0 0.3 0 0.5 0 0.3 0 0.5-0.1v2q-0.2 0-0.6 0.1-0.4 0-0.8 0.1-0.4 0-0.6 0zm7.2 0q-1.5 0-2.5-0.5-0.9-0.5-1.3-1.6-0.4-1-0.4-2.7 0-1.6 0.4-2.6 0.4-1 1.4-1.5 0.9-0.5 2.4-0.5 1.5 0 2.4 0.5 0.9 0.5 1.4 1.5 0.4 1 0.4 2.6 0 1.7-0.4 2.7-0.4 1.1-1.4 1.6-0.9 0.5-2.4 0.5zm0-2q0.7 0 1.1-0.3 0.4-0.2 0.5-0.9 0.2-0.6 0.2-1.6 0-1-0.2-1.6-0.2-0.6-0.5-0.8-0.4-0.3-1.1-0.3-0.7 0-1.1 0.3-0.4 0.2-0.5 0.8-0.2 0.6-0.2 1.6 0 1 0.1 1.6 0.2 0.7 0.5 0.9 0.4 0.3 1.2 0.3z"/>
</svg>