<svg width="36" height="36" viewBox="0 0 36 36" fill="none" xmlns="http://www.w3.org/2000/svg">
<rect width="36" height="36" rx="12" fill="#F6EEFF"/>
<path d="M17.9998 17.884L26.1305 13.4491C25.8719 12.5983 25.3474 11.8528 24.6339 11.322C23.9205 10.7912 23.0557 10.5031 22.1665 10.5H13.8331C12.9439 10.5031 12.0791 10.7912 11.3657 11.322C10.6522 11.8528 10.1277 12.5983 9.86914 13.4491L17.9998 17.884Z" fill="#7451A5"/>
<path d="M18.3995 19.5649C18.277 19.6317 18.1398 19.6667 18.0003 19.6667C17.8609 19.6667 17.7236 19.6317 17.6012 19.5649L9.66699 15.2372V21.3334C9.66829 22.438 10.1077 23.4971 10.8888 24.2782C11.6699 25.0593 12.729 25.4987 13.8337 25.5H22.167C23.2717 25.4987 24.3307 25.0593 25.1118 24.2782C25.893 23.4971 26.3324 22.438 26.3337 21.3334V15.2372L18.3995 19.5649Z" fill="#7451A5"/>
</svg>
