<svg version="1.2" xmlns="http://www.w3.org/2000/svg" viewBox="0 0 1008 320" width="951" height="302">
	<title>logo</title>
	<style>
		.s0 { fill: #191727 } 
		.s1 { fill: #6a5fa7 } 
		.s2 { fill: #686db2 } 
		.s3 { fill: #191626 } 
		.s4 { fill: #0f0d19 } 
		.s5 { fill: #6a62aa } 
		.s6 { fill: #6671b4 } 
		.s7 { fill: #6a59a2 } 
		.s8 { fill: #6863a8 } 
		.s9 { fill: #6b5199 } 
		.s10 { fill: #191627 } 
		.s11 { fill: #6a6daf } 
		.s12 { fill: #181936 } 
		.s13 { fill: #0e0c18 } 
		.s14 { fill: #0e0c16 } 
		.s15 { fill: #0a0914 } 
		.s16 { fill: #26274b } 
		.s17 { fill: #0f0e1b } 
		.s18 { fill: #15131e } 
		.s19 { fill: #16151c } 
		.s20 { fill: #171523 } 
		.s21 { fill: #201d43 } 
		.s22 { fill: #100d1d } 
		.s23 { fill: #656cb1 } 
		.s24 { fill: #1b1a38 } 
		.s25 { fill: #232245 } 
		.s26 { fill: #27244b } 
		.s27 { fill: #36345d } 
		.s28 { fill: #323360 } 
		.s29 { fill: #2d244d } 
		.s30 { fill: #584b78 } 
		.s31 { fill: #272951 } 
		.s32 { fill: #251c3a } 
		.s33 { fill: #53407a } 
		.s34 { fill: #26244b } 
		.s35 { fill: #342650 } 
		.s36 { fill: #12111d } 
		.s37 { fill: #66568f } 
		.s38 { fill: #25234a } 
		.s39 { fill: #4a4373 } 
		.s40 { fill: #3a386a } 
		.s41 { fill: #2d2f5f } 
		.s42 { fill: #282647 } 
		.s43 { fill: #221a41 } 
		.s44 { fill: #2d214a } 
		.s45 { fill: #47446c } 
		.s46 { fill: #0f0c19 } 
		.s47 { fill: #363861 } 
		.s48 { fill: #242a4f } 
		.s49 { fill: #100e18 } 
		.s50 { fill: #5f5e91 } 
		.s51 { fill: #25212d } 
		.s52 { fill: #27224c } 
		.s53 { fill: #0b0a15 } 
		.s54 { fill: #292f56 } 
		.s55 { fill: #69568f } 
		.s56 { fill: #231d30 } 
		.s57 { fill: #0f0e17 } 
		.s58 { fill: #5a5483 } 
		.s59 { fill: #1e1f47 } 
		.s60 { fill: #120f1e } 
		.s61 { fill: #645c8a } 
		.s62 { fill: #43426b } 
		.s63 { fill: #0b0915 } 
		.s64 { fill: #0b0914 } 
		.s65 { fill: #352b52 } 
		.s66 { fill: #302c5b } 
		.s67 { fill: #14131d } 
		.s68 { fill: #0f0d17 } 
		.s69 { fill: #7676ad } 
		.s70 { fill: #222149 } 
		.s71 { fill: #0f0e1c } 
		.s72 { fill: #0e0d16 } 
		.s73 { fill: #0f0d1c } 
		.s74 { fill: #686ca6 } 
		.s75 { fill: #261f4a } 
		.s76 { fill: #4c4d7a } 
		.s77 { fill: #1e1d42 } 
		.s78 { fill: #100e19 } 
		.s79 { fill: #686199 } 
		.s80 { fill: #423d6d } 
		.s81 { fill: #1b1b44 } 
		.s82 { fill: #0f171e } 
		.s83 { fill: #252348 } 
		.s84 { fill: #05040b } 
		.s85 { fill: #181b35 } 
		.s86 { fill: #0c0a16 } 
		.s87 { fill: #0f0e19 } 
		.s88 { fill: #14181c } 
		.s89 { fill: #111019 } 
		.s90 { fill: #0e0d18 } 
		.s91 { fill: #0e0d13 } 
		.s92 { fill: #2f2952 } 
		.s93 { fill: #646ba8 } 
		.s94 { fill: #5c538b } 
		.s95 { fill: #16151b } 
		.s96 { fill: #343157 } 
		.s97 { fill: #0c0c16 } 
		.s98 { fill: #2b2b50 } 
		.s99 { fill: #636093 } 
		.s100 { fill: #231f3f } 
		.s101 { fill: #2f294f } 
		.s102 { fill: #2c1c41 } 
		.s103 { fill: #4c4068 } 
		.s104 { fill: #0b0a14 } 
		.s105 { fill: #40366d } 
		.s106 { fill: #0e0c17 } 
		.s107 { fill: #2f2e57 } 
		.s108 { fill: #0e0c15 } 
		.s109 { fill: #12111b } 
		.s110 { fill: #5e5586 } 
		.s111 { fill: #5e6694 } 
		.s112 { fill: #4d4674 } 
		.s113 { fill: #2d264d } 
		.s114 { fill: #282a4c } 
		.s115 { fill: #524f80 } 
		.s116 { fill: #6e6da4 } 
		.s117 { fill: #1e1c40 } 
		.s118 { fill: #110f1c } 
		.s119 { fill: #1c1a3b } 
		.s120 { fill: #1a173d } 
		.s121 { fill: #757db2 } 
		.s122 { fill: #373665 } 
		.s123 { fill: #100f14 } 
		.s124 { fill: #322c5b } 
		.s125 { fill: #2d2a58 } 
		.s126 { fill: #6b6398 } 
		.s127 { fill: #554975 } 
		.s128 { fill: #2c2659 } 
		.s129 { fill: #373a62 } 
		.s130 { fill: #716ba7 } 
		.s131 { fill: #31305f } 
		.s132 { fill: #1f1b36 } 
		.s133 { fill: #5a5e8b } 
		.s134 { fill: #595b90 } 
		.s135 { fill: #28294b } 
		.s136 { fill: #3f375f } 
		.s137 { fill: #1e2046 } 
		.s138 { fill: #0d0c13 } 
		.s139 { fill: #484571 } 
		.s140 { fill: #0f0e15 } 
		.s141 { fill: #5e5a8d } 
		.s142 { fill: #28214a } 
		.s143 { fill: #3a3262 } 
		.s144 { fill: #7276b0 } 
		.s145 { fill: #4e517c } 
		.s146 { fill: #3a3763 } 
		.s147 { fill: #201b39 } 
		.s148 { fill: #7479bd } 
		.s149 { fill: #56538c } 
		.s150 { fill: #100f18 } 
		.s151 { fill: #0b0815 } 
		.s152 { fill: #5b618e } 
		.s153 { fill: #6b6799 } 
		.s154 { fill: #1d1c3e } 
		.s155 { fill: #6f71a1 } 
		.s156 { fill: #4e4b75 } 
		.s157 { fill: #23222d } 
		.s158 { fill: #61608a } 
		.s159 { fill: #0f0e18 } 
		.s160 { fill: #7778b5 } 
		.s161 { fill: #0c0c12 } 
		.s162 { fill: #0f0d18 } 
		.s163 { fill: #0c0a13 } 
		.s164 { fill: #110f1e } 
		.s165 { fill: #211e2e } 
		.s166 { fill: #0f0d1a } 
		.s167 { fill: #5c4e83 } 
		.s168 { fill: #171b3e } 
		.s169 { fill: #746fa6 } 
		.s170 { fill: #5f5998 } 
		.s171 { fill: #211e2f } 
		.s172 { fill: #211f2a } 
		.s173 { fill: #484478 } 
		.s174 { fill: #4b446f } 
		.s175 { fill: #7577ba } 
		.s176 { fill: #7375af } 
		.s177 { fill: #605b8f } 
		.s178 { fill: #4e4f87 } 
		.s179 { fill: #2e2f4b } 
		.s180 { fill: #45426c } 
		.s181 { fill: #464178 } 
		.s182 { fill: #2e2848 } 
		.s183 { fill: #7163a4 } 
		.s184 { fill: #372d58 } 
		.s185 { fill: #24193d } 
	</style>
	<path class="s0" d="m1007-2q0 2 0 4-2 0.5-4 1 0 1 0 2-2.7 1.7-5.6 3.2c-6.3 3.6-10.9 7.4-15.2 13.2-0.6 0.8-0.6 0.8-1.2 1.6q-1 0-2 0-0.2 0.8-0.3 1.7c-1 3.4-3.1 6.1-5 9.1-6.3 12.2-6.3 23.6-6.2 37q0 3.3 0 6.6-0.1 7 0 14.1 0 11.1-0.1 22.3 0 17.7 0 35.3 0 14.1 0 28.2 0 1 0 2-0.1 16.5-0.1 33.1 0 11.1 0 22.2 0 6.9 0 13.8 0 3.2 0 6.4 0 4.3 0 8.7c0 1.3 0 1.3 0 2.5-0.1 15.4-5.7 29.3-16.5 40.2-5.3 4.8-5.3 4.8-7.8 4.8q0 1 0 2-2 1.2-4 2.4-1.1 0.6-2.3 1.3c-6.7 3.2-13.2 3.6-20.5 3.7q-1.5 0-3 0.1-5.1 0-10.3 0.1-1.8 0-3.8 0.1c-43.6 0.6-87.2 0.5-130.9 0.6q-14.1 0-28.1 0-1.1 0-2.1 0.1-4.2 0-8.3 0-44.8 0.1-89.5 0.1c-1.2 0-1.2 0-2.3 0q-2.2 0-4.5 0-23.7 0.1-47.5 0.1c-73.8 0.1-147.6 0.3-248 0.4q-5.8 0-11.6 0-86.4 0.1-172.9 0.2-19.8 0-39.7 0-22.1 0-44.2 0-12 0-24 0-8.8 0.1-17.6 0-3.5 0-7 0.1-4.8 0-9.5-0.1-1.4 0.1-2.8 0.1-1.3 0-2.5-0.1c-1.1 0-1.1 0-2.2 0-1.9-0.2-1.9-0.2-4.9-2.2-0.4-2.3-0.4-2.3-0.4-5.2q0-1.7 0-3.4 0-1.9 0-3.8 0-1.9 0-4 0-5.4 0.1-10.9 0-5.9 0-11.8 0-10.2 0-20.4 0-14.7 0-29.5 0-23.9 0.1-47.9 0-23.2 0-46.5 0-1.4 0-2.9 0-7.2 0-14.4 0.1-59.6 0.2-119.3c2.6-1.3 4.6-1.1 7.6-1.1q1.8 0 3.6 0 2.1 0 4.1 0 2.1 0 4.3 0 5.9 0 11.8 0 6.4 0 12.9 0 11.3 0 22.6 0 16.8 0 33.6 0 28.3 0 56.6 0 38.9 0 77.7 0 18.2 0.1 36.4 0.1 1.8 0 3.6 0 43.4 0 86.7 0c1.9 0 1.9 0 3.9 0q34.5 0 69 0 24.6 0 49.3 0c1.8 0 1.8 0 3.7 0q42.9 0 85.8 0c1.8 0 1.8 0 3.7 0q18.2 0 36.4 0.1 37 0 74 0 39.6 0 79.1 0c1.6 0 1.6 0 3.1 0 68.3 0 136.5-0.3 204.7-0.9q16.9-0.2 33.8-0.2zm-416 97q-0.1 2.2-0.1 4.4 0 1.4 0 2.8 0 1.6 0 3.2 0 1.6 0 3.3 0 5.5 0 10.9 0 3.8 0 7.5 0 8.9 0 17.9 0 11.1 0.1 22.2 0 19.9 0 39.8 9 0.3 18.1 0.5 3.1 0.1 6.2 0.1 4.4 0.2 8.8 0.3 1.4 0 2.8 0.1c4.2 0.1 8 0.1 12.1-1q0-3.5 0.1-6.9 0-2 0-3.9c0.3-3.1 0.3-3.1-1.1-4.2-10.6-0.3-21.1-0.7-32-1-0.5-47.5-0.5-47.5-1-96-2.6-1.3-4.6-1.1-7.6-1.1-1.4 0-1.4 0-3 0-2.3-0.2-2.3-0.2-3.4 1.1zm160 0c0 36.6 0 73.3 0 111 6.8 1.9 8.6 2.2 15 1 1.3-1.1 1.3-1.1 1.1-3.7q0-1.7 0-3.5c0-1.9 0-1.9 0-3.8q0-2.1 0-4.1 0-2-0.1-4 0-4.9 0-9.9 1.5 0 3 0 0.4 1.1 0.7 2.1c1.5 3.4 3.5 5.9 5.8 8.7q1.2 1.5 2.4 3c1 1.1 1 1.1 2.1 2.2q1 0 2 0 0 1.5 0 3 2.4 2.6 5 5 1.1 1.4 2.2 2.8c1.6 2.3 1.6 2.3 3.8 3.2q4.1 0.1 8.1 0.1c1.2 0 1.2 0 2.3-0.1q2.8 0 5.6 0c0-5.1-2.1-7.2-5.2-10.9q-0.7-0.9-1.5-1.9c-2.9-3.6-6-6.9-9.3-10.2-2.4-2.9-4.7-5.8-7-8.8q-1-1.1-2-2.2-1 0-2 0-0.5-2-1-4-1 0-2 0c-0.1-0.8-0.1-0.8-0.2-1.7-1.1-3.2-3.4-4.9-5.8-7.3q-0.5-1.5-1-3 1.3-1 2.7-2.1c2.2-1.9 3.9-3.6 5.7-5.9 2.1-2.4 3.5-3.8 6.1-5.5 3.5-2.4 5.8-5.2 8.5-8.5q2.8-2.4 5.6-4.7 0.7-0.6 1.4-1.3 0-1 0-2 1.2-0.4 2.4-0.7c3-1.5 3.3-2.3 4.6-5.3-5.3-0.3-10.5-0.5-15.8-0.4q-1.3 0-2.7 0c-5 0.8-7.5 3.5-10.5 7.4q-2.1 2.2-4.3 4.4-2.2 2.1-4.3 4.3c-2.4 2.3-2.4 2.3-5.4 3.3 0-15.2 0-30.4 0-46-8-1.4-8-1.4-16 0zm-425 0q0 21.7-0.1 43.4 0 10 0 20.1 0 9.7 0 19.4 0 3.7 0 7.4 0 5.2 0 10.4 0 1.5 0 3.1 0 1.4 0 2.9 0 1.2 0 2.4c-0.1 1.9-0.1 1.9 1.1 2.9 2.4 0.1 4.9 0.2 7.3 0.2q1.1 0 2.3 0 2.3 0 4.7 0 3.6 0.1 7.2 0.1c17.8 0.1 31.8-3.4 45.1-15.7q1.2-1.3 2.4-2.6 0.8-0.9 1.7-1.8c10.4-11.3 14.3-25.8 13.7-41-1.3-17.3-10.2-29.2-22.2-40.9-9.4-6.7-19-10.5-30.5-10.7q-1.3-0.1-2.6-0.1-2.8-0.1-5.5-0.1-4.3-0.1-8.5-0.2-2.7-0.1-5.4-0.1c-1.2-0.1-1.2-0.1-2.5-0.1-4.2-0.2-4.2-0.2-8.2 1zm324 2c-2.2 3.3-2.7 4.2-2 8 2.5 3 2.5 3 6 5 4-0.1 5.7-0.8 9-3 0.5-2.1 0.5-2.1 0.4-4.4 0-1.2 0-1.2 0-2.4-0.5-2.7-1.3-3.5-3.4-5.2-4.3-1.6-6.4-0.7-10 2zm-148 25c-1.3 3.6-0.7 5.5 0.6 9q0.6 1.5 1.2 3 2.4 5.8 4.8 11.7c1.6 3.8 3 7.6 4.5 11.4q4.3 11.8 9.2 23.4 2.4 5.6 4.5 11.2c0.5 1.2 0.5 1.2 0.9 2.5q1 2.4 1.9 4.8c0.4 1.1 0.4 1.1 0.8 2.3 0.4 1 0.4 1 0.8 2 0.8 1.9 0.8 1.9 2.8 3.7 2.6 0.5 2.6 0.5 5.4 0.7 1.5 0.1 1.5 0.1 3 0.2 2.7 0.2 2.7 0.2 5.6-0.9 1.1-1.9 1.1-1.9 2-4.2 1.1-2.7 2.2-5.2 3.6-7.8 1.4-3 2.4-6 3.5-9.2 1.2-3.7 2.5-7.3 3.9-11q0.4-1 0.8-2c1.5-4.1 3.2-7.9 5.2-11.8q1-3 2-6c0.6-1.3 0.6-1.3 1.1-2.6 1.1-2.6 1.1-2.6 0.9-6.4q1 0 2 0 0.4-1.2 0.8-2.4c3.1-9.6 3.1-9.6 5-13.5 1.2-3.1 1.3-4.9 1.2-8.1q-3.4-0.2-6.8-0.2-1.9-0.1-3.8-0.2c-3.4 0.1-3.4 0.1-5.2 2-1.5 3-2.7 6.1-3.9 9.3q-0.8 2.2-1.5 4.3-0.5 1.2-0.9 2.3c-1.7 4.6-3.4 9.1-5.1 13.6q-0.5 1.3-1 2.6c-1.4 3.7-2.8 7.4-4.4 11.1-1.7 3.9-3 7.9-4.3 11.9-0.6 1.2-0.6 1.2-1.1 2.3q-1.5 0.5-3 1-0.2-1.1-0.4-2.1c-0.6-3-1.6-5.7-2.7-8.6q-0.7-1.7-1.4-3.4-0.3-1-0.7-1.9-1.3-3.2-2.5-6.4c-3.3-8.6-6.7-17.2-10.3-25.6q-0.6-1.3-1.1-2.6c-1.5-3.4-2.9-6.3-4.9-9.4-3.1-0.4-3.1-0.4-6.6-0.2q-1.8 0.1-3.6 0.1c-1.4 0-1.4 0-2.8 0.1zm147 1q-0.1 2.9-0.1 5.8 0 1.8 0 3.7 0 2.1 0 4.1 0 2.2 0 4.3 0 4.4 0 8.9 0 5.6 0 11.3c-0.1 15.3 0 30.6 1.1 45.9 4.3 0 8.6 0 13 0q0-16.4 0.1-32.8 0-7.6 0-15.2 0-7.4 0-14.7 0-2.8 0-5.6 0-4 0-7.9 0-1.1 0-2.3c0.3-3.6 0.3-3.6-1.1-6.5q-3-0.1-6-0.1-1.6 0-3.3 0c-2.6-0.2-2.6-0.2-3.7 1.1zm-219 9q0 1 0 2-1.5 0.5-3 1c-4.6 3.5-6.7 8.8-9 14q-0.5 1-1 2.1c-4 9.9-3.1 21.4 0.7 31.2 2.1 4.4 5 8 8.3 11.7q1.2 1.3 2.4 2.7c9.9 8.7 20.1 12 33.3 11.7 12.3-1.4 21.2-6.1 29-15.6 2.3-2.8 2.3-2.8 4.3-3.8-0.4-2.8-0.8-3.8-2.9-5.7q-1.2-0.8-2.4-1.6-1.2-0.8-2.4-1.6c-2.2-1.3-2.2-1.3-4.5-0.9-2.7 1.2-4 3.4-5.8 5.8-6.4 6.2-13.8 7.3-22.4 7.3-2.8-0.3-5-1.2-7.6-2.3q-2 0-4 0 0-1 0-2c-1.4-1.3-1.4-1.3-3.2-2.7-4.6-3.7-6.9-7.7-8.8-13.3q1.3 0 2.6 0 12.2-0.2 24.3-0.3 6.3-0.1 12.5-0.2 6.1-0.1 12.1-0.2 2.3 0 4.6 0 3.2 0 6.5-0.1c1.8 0 1.8 0 3.7 0 2.6 0.1 2.6 0.1 3.7-1.2 0.6-7.6 0-14-3-21q-0.4-1-0.8-2c-4.6-10.3-13.1-18.2-23.4-22.3-14.7-4.5-32.1-3.3-43.8 7.3zm260-3q-0.2-1-0.4-1.9c-0.4-2.1-0.4-2.1-1.6-3.1q-3-0.1-6-0.1-1.6 0-3.3 0c-2.6-0.2-2.6-0.2-3.7 1.1q-0.1 3.8-0.1 7.6 0 1.2 0 2.5 0 4 0 7.9 0 2.8 0 5.5 0 7.3 0 14.6 0 7.4 0.1 14.8 0 14.6 0 29.1c3.2 0.7 6.1 1.1 9.3 1.1 1.8-0.1 1.8-0.1 3.7-0.1 2.2-5.4 2.2-10.1 2.1-15.8q0-2.9-0.1-5.8 0-4.5-0.1-9c-0.4-25.8-0.4-25.8 5.1-35.4 1.7-0.6 1.7-0.6 4-1q1.6-0.8 3.2-1.6c4.4-1.9 8.2-1.6 12.8-0.4 2.7 1.1 4.6 2.3 7 4 0.5 1.5 0.5 1.5 1 3q1 0 2 0c0.9 3.2 1.1 6.1 1.2 9.5q0 1.6 0 3.3 0 1.7 0 3.5 0.1 3.7 0.1 7.5 0.1 5.8 0.1 11.7 0 5.7 0.1 11.3 0 1.8 0 3.6 0.1 1.6 0.1 3.3c0 1.4 0 1.4 0 2.9 0.2 2.4 0.2 2.4 1.5 4.3 2.9 1.7 5.3 1.1 8.6 0.8q1.7-0.2 3.6-0.4 1.3-0.1 2.7-0.3 0.2-11.2 0.2-22.4 0-3.8 0.1-7.5 0.1-5.5 0.1-11 0-1.7 0.1-3.4c0-12-2.7-22.1-11.1-30.7-6.7-6.6-13.5-9.6-22.8-10.1-7.6 0.2-13.2 3.2-19.6 7.1z"/>
	<path class="s1" d="m264.7 80.7c7.2-0.4 7.2-0.4 10.2 1.5 2.3 2.2 3.9 4.4 5.5 7.2 2.4 4 5.5 7.4 8.5 11 3.1 3.9 4.1 5.6 4.1 10.6q1 0 2 0c6.7 12.9 8.2 27.5 8.1 41.9q0 1.2 0 2.5 0 1.2 0 2.5 0 1 0 2.2c-0.1 1.9-0.1 1.9-1.1 4.9-5.7 3.2-11.2 3.7-17.6 4.1q-1.4 0.2-2.8 0.3c-2.7 0.2-5 0.2-7.6-0.4-2.3-2-3.6-4.3-5-7-2.6-2.7-4.5-3.2-8.1-3.6-3.9-0.4-3.9-0.4-5.9-2.4-0.2-2.4-0.2-2.4-0.1-5.1q0-1.4 0-2.8 0.1-1 0.1-2.1c-1.5-0.5-1.5-0.5-3-1-1.5-2.6-1.5-2.6-3-5.8-1.7-3.7-3.5-6.9-6-10.2q-0.7-1.7-1.4-3.4c-1.6-3.6-3.3-6.4-5.6-9.6q-0.6-0.9-1.2-1.8c-2.6-3.8-2.6-3.8-6.1-6.6-2.2-2.1-2-3-2.1-5.9q0.2-2.4 0.4-4.7 0.2-1.6 0.3-3.3c2.8-4.5 7.7-5.4 12.7-6.7q1.5 0 3 0 0-1 0-2c7.2-1.9 14.2-3.5 21.7-4.3z"/>
	<path class="s2" d="m167 158c5.5 0.3 7.3 1.3 11 5 2.4 1.1 4.9 2 7.4 2.9 2.6 1.1 2.6 1.1 5.4 3.1 3.8 2.4 7.4 3.5 11.7 4.6q2.2 0.6 4.4 1.3 1.1 0.2 2.1 0.5c1.8 0.5 3.5 1.1 5.2 1.7 2.9 0.9 5.7 1.5 8.7 2q1.4 0.3 2.9 0.5 1.1 0.2 2.2 0.4 0 1 0 2 1 0 2 0 0 1.5 0 3c-5.8 4.7-12.2 8.3-19 11.4-3.1 1.7-5.4 3.5-8.1 6q-1.2 1.2-2.6 2.4-2.5 2.4-5.1 5c-2.2 2.2-2.2 2.2-5.3 4.7-3 2.4-3 2.4-5.2 5.3q-0.8 1.1-1.7 2.2-1 0-2 0-0.3 1.5-0.7 3.1c-1.2 4.3-3.4 6.6-6.3 9.9-0.5 1.5-0.5 1.5-1 3-7.1 0.9-11.2-2.1-17-6q-1.2-0.8-2.5-1.6c-4.3-2.7-8.1-5.5-11.5-9.4q0-1 0-2-2-1-4-2c0.8-17.3 0.8-17.3 3-25q0.5-1.8 1-3.7 1.5-5.1 3-10.3 1 0 2 0 0.2-1.1 0.4-2.2c0.6-2.6 1.3-4.5 2.6-6.8q1 0 2 0 0.2-1.4 0.4-2.8c0.6-3.2 0.6-3.2 1.6-6.2 1.3-0.1 1.3-0.1 2.6-0.2 1.6-0.1 1.6-0.1 3.3-0.2q1.7-0.2 3.4-0.3c2.6 0 2.6 0 3.7-1.3z"/>
	<path class="s3" d="m343.9 108.6q1.2 0 2.4 0 1.2 0 2.5 0 1.4 0 2.8 0 1.3 0 2.6 0c9.3 0 16.6 3.1 24.8 7.4q0 1 0 2 0.9 0.1 1.7 0.2c3.2 1.1 4.4 3.1 6.3 5.8q0 1 0 2 1 0 2 0 1.5 3 2.9 6.1 0.9 1.6 1.7 3.4c4.4 11 3 23.8-1.6 34.6-1.7 3.8-1.7 3.8-4 4.9-0.5 1.5-0.5 1.5-1 3-7.3 7.7-15.9 13.5-26.7 14.2q-4.4 0-8.8-0.1-1.5 0-3.1 0-3.7 0-7.4-0.1c-0.6-20.5-1.1-41-1.2-61.6q0-2.4 0-4.8 0-3.4 0-6.7 0-1.9 0-3.8c0.2-3.3 0.5-5.8 4.1-6.5z"/>
	<path class="s4" d="m8.1-1.1q1.9 0.1 3.9 0.1 1.5 0 3 0c-4 2-4 2-14 2 0.3 104.9 0.7 209.9 1 318 88.3 0.1 88.3 0.1 176.5 0.1 1.2 0 1.2 0 2.5 0q2.5 0 5 0 2.7 0 5.3 0c85.7-0.1 171.4-0.2 367.4-0.5q34.5 0 69-0.1 45.2-0.1 90.4-0.1 4.6 0 9.1-0.1 1.1 0 2.3 0 15.4 0 30.9 0c70.5 0 70.5 0 140.9-0.6q3.9 0 7.7-0.1 5.1 0 10.1-0.1 1.4 0 2.9 0c5.2-0.1 8.4-1 13-3.5q1.5 0.5 3 1c-5.9 5.4-14.2 5.3-21.8 5.4q-1.5 0-3 0.1-5.1 0-10.3 0.1-1.8 0-3.8 0.1c-43.6 0.6-87.2 0.5-130.9 0.6q-14.1 0-28.1 0-1.1 0-2.1 0.1-4.2 0-8.3 0-44.8 0.1-89.5 0.1c-1.2 0-1.2 0-2.3 0q-2.2 0-4.5 0-23.7 0.1-47.5 0.1c-73.8 0.1-147.6 0.3-248 0.4q-5.8 0-11.6 0-86.4 0.1-172.9 0.2-19.8 0-39.7 0-22.1 0-44.2 0-12 0-24 0-8.8 0.1-17.6 0-3.5 0-7 0.1-4.8 0-9.5-0.1-1.4 0.1-2.8 0.1-1.3 0-2.5-0.1c-1.1 0-1.1 0-2.2 0-1.9-0.2-1.9-0.2-4.9-2.2-0.4-2.3-0.4-2.3-0.4-5.2q0-1.7 0-3.4 0-1.9 0-3.8 0-1.9 0-4 0-5.4 0.1-10.9 0-5.9 0-11.8 0-10.2 0-20.4 0-14.7 0-29.5 0-23.9 0.1-47.9 0-23.2 0-46.5 0-1.4 0-2.9 0-7.2 0-14.4 0.1-59.6 0.2-119.3c3-1.5 5.8-1.1 9.1-1.1z"/>
	<path class="s5" d="m201.9 111.3q2 0.2 4.1 0.4c1 0.1 1 0.1 2 0.2 2.3 0.2 2.3 0.2 5.8-0.1 3.2 0.2 3.2 0.2 5.1 1.8 0.7 1 0.7 1 1.4 2.1 0.7 1.1 0.7 1.1 1.5 2.2 1.3 2.3 2.3 4.6 3.2 7.1 2.2 4.7 2.2 4.7 6 8q0.7 1.7 1.4 3.4c1.3 3.8 1.3 3.8 4.6 5.6 0.8 2.2 0.8 2.2 1.5 4.9 0.9 3.7 2.2 6 4.5 9.1 0.6 4.3 0.5 6.3-1.9 9.9-4.2 2.9-7.3 2.9-12.1 2.1-8.3-2-16.2-4.6-24-8q-1.8-0.7-3.6-1.5-1.8-0.7-3.6-1.5-1.8-0.7-3.6-1.5c-2.8-1.3-4.8-2.6-7.2-4.5q-3.5-1.5-7-3c-2.9-2.9-2.4-5.1-2.6-9.1q-0.1-1.9-0.3-3.9 0-1.5-0.1-3-1 0-2 0c-0.6-2.6-0.6-2.6 0-6 2.1-2 4.3-3.6 6.7-5.3 2.5-1.7 2.5-1.7 5-4.4 4.9-4.9 8.5-5.7 15.2-5z"/>
	<path class="s6" d="m247 194c1.7 1.2 1.7 1.2 3 3 0.4 2.8 0.4 2.8 0.4 6.3 0 1.8 0 1.8 0 3.7q-0.1 2-0.1 4 0 1.9 0 3.9c-0.1 19.9-0.1 19.9-4.5 24.4q-1.4 0.6-2.8 1.2c-1.5 0.7-1.5 0.7-3 1.4q-1.5 0.5-3 1.1-1.3 0.5-2.6 1c-14.5 4.9-33.6 4.7-48.4 1 0.5-4.8 1.6-7.4 4.7-11.1q1.1-1.2 2.2-2.6c3.2-3.5 6.1-6.6 10.1-9.3 0.7-1.2 0.7-1.2 1.4-2.4 1.8-2.9 3.3-4.1 6.2-5.9 3.7-2.5 7.2-5.1 10.6-7.9 2.8-2.4 5.4-4.3 8.8-5.6 3.3-1 3.3-1 5-4.2q2 0 4 0 0-1 0-2c2.9-1.5 4.9-0.8 8 0z"/>
	<path class="s7" d="m163 72c3.1 1.9 3.1 1.9 6 4q1.9 0.7 3.9 1.4c4.1 1.4 7.1 3.6 10.4 6.3 1.7 1.4 1.7 1.4 3.7 2.3 0.7 4.8 0.9 9.2 0 14-2.5 3-5 4.9-8.2 7-2.9 2.1-4.7 4.2-6.8 7q-2.5 2.5-5 5-0.5 0.5-1 1c-15.4 1.3-15.4 1.3-20.7-1.3-1.7-1.5-3-2.9-4.3-4.7q-1-1-2-2-1 0-2 0-0.1-0.9-0.3-1.8c-0.8-4.1-1.5-6.9-3.9-10.4-1.8-2.8-1.8-2.8-1.6-5.2 2.4-7.7 10.4-12.9 16.5-17.6 2.5-1.9 2.5-1.9 3.3-5 4.2-1.4 7.7-1 12 0z"/>
	<path class="s8" d="m121 111c6.6 1.5 9.4 7.5 12.8 12.8 1.2 2.2 1.2 2.2 2.2 5.2q1 0.5 2 1c0.3 2.5 0.4 4.8 0.5 7.3 0.1 4.4 0.4 7.8 2.5 11.7 0.5 4.3-0.7 7-2.7 10.8-3.1 6.4-5.2 12.8-7.2 19.6q-1 3.4-2.2 6.8c-0.8 2.5-1.3 4.6-1.5 7.2q-0.2 1.8-0.4 3.6-2 0-4 0c-2.7-2.7-3.6-5.7-4.9-9.2q-0.4-0.9-0.8-1.9c-4.6-12.2-5.8-24.6-5.7-37.5q-0.1-2-0.1-4c0-10.4 1.6-25.5 9.5-33.4z"/>
	<path class="s9" d="m203.7 55.8q3 0 6 0c10.5 0 19.9 1.3 30 4.3q1.8 0.6 3.6 1.1c1.3 0.4 1.3 0.4 2.7 0.8q0 1 0 2c0.9 0.2 0.9 0.2 1.8 0.4 2.2 0.6 2.2 0.6 5.2 2.6q0 1 0 2c-3.7 1.4-7.3 2.2-11.2 2.8-4.2 0.7-7.4 1.8-11 3.8-4.2 2.2-7 3.1-11.8 2.4-2.8-1.4-2.8-1.4-5-3-2.4-1.2-4.4-1.3-7.1-1.6q-1.4-0.1-2.8-0.2-1-0.1-2.1-0.2 0 1 0 2c-4.6 0.3-6.5-0.1-10-3q-2.5-1-5-2c-3.9-1.9-7.6-4.3-11-7q0-1 0-2c3.4-1.5 5.2-2 9-2q0-1 0-2c6.2-1.2 12.3-1.2 18.7-1.2z"/>
	<path class="s10" d="m476.7 141.8c5.6 5.3 6.3 8.3 7.3 16.2-17.5 0-35 0-53 0 1.2-8.3 1.2-8.3 4-12q1 0 2 0c0.3-0.9 0.3-0.9 0.7-1.8 2.9-4.9 9.5-6.7 14.7-8.1 9.2-0.3 16.6 0.5 24.3 5.7z"/>
	<path class="s11" d="m297 181q0 2.5 0 5-1 0-2 0-0.1 1.6-0.3 3.2c-0.8 4.1-1.8 5.9-4.7 8.8q-1 0-2 0-0.1 1-0.1 2c-2.2 7.4-8.7 13.1-13.8 18.7-1.7 1.9-3.3 3.9-4.9 5.9q-1.1 1.2-2.2 2.4-2 0-4 0c0.3-10.2 0.7-20.5 1-31 2-1 4-2 6-3 1.9-2.2 1.9-2.2 3.5-4.7 3.1-4.2 3.1-4.2 6.9-4.9q1.3 0.3 2.6 0.6 0-1 0-2c4.7-0.7 9.2-1.1 14-1z"/>
	<path class="s12" d="m225 187q1 0.5 2 1c-2.1 2.2-3 3-6 4-1.9 2.1-1.9 2.1-3.6 4.5-3.4 4.5-3.4 4.5-4.4 5.5q-3 0.1-6 0-0.4 1.7-0.8 3.4-0.6 1.8-1.2 3.6-1.5 0.5-3 1 0 1 0 2 2.9-1.4 5.9-2.9 1.6-0.8 3.3-1.6c2.8-1.3 2.8-1.3 4.8-3.5q1.5-1 3-2 0-1 0-2c0.9 0 0.9 0 1.9 0.1 1.2 0 1.2 0 2.5 0 1.2 0.1 1.2 0.1 2.4 0.1 2.4 0 2.4 0 4.2-2.2 2.1 0.4 2.1 0.4 4 1q-0.8 0.4-1.6 0.8c-5.5 2.9-10.1 6.2-14.8 10.1-3.4 2.7-7 5.1-10.6 7.5-2.2 1.7-2.8 3.1-4 5.6-1.8 1.9-1.8 1.9-3.9 3.6q-1.1 0.9-2.1 1.8c-2 1.6-2 1.6-5 3.6 1.1-2.5 2-4 4.1-5.9 2.4-2.6 2.4-4.6 2.9-8.1q1-0.5 2-1 0-2 0-4c-3.7 1.1-3.7 1.1-6 4q-1 0-2 0-0.1 0.9-0.1 1.8c-1.3 3.3-3.7 3.8-6.9 5.2q-1.1 0.8-2.2 1.7c-1.8 1.3-1.8 1.3-4.8 1.3 2.2-6.9 8.3-11.8 14-16q1 0 2 0 0.4-0.9 0.8-1.7c1.4-2.6 3-4.3 5.1-6.4q1-1 2-2c3.5-3.2 6.7-5.1 11.1-6.9 3.9-1.9 7.4-4.5 11-7z"/>
	<path class="s13" d="m589 92c15 0 15 0 17 1 0.3 32 0.7 64 1 97 10.2 0.3 20.5 0.7 31 1q0 0.5 0 1-6.8 0-13.6 0.1-2.3 0-4.7 0-3.3 0-6.6 0c-1 0-1 0-2.1 0q-2.5 0-5-0.1c-1.9-1.9-1.1-4.7-1.1-7.2q0-1.4 0-2.7 0-1.4 0-2.9 0-4.6 0-9.3 0-3.2 0-6.5 0-8.5 0-17 0-8.6 0.1-17.3 0-17.1 0-34.1c-4.3 0-8.6 0-13 0-0.3 37-0.7 73.9-1 112q-1 0-2 0c0-37.9 0-75.9 0-115z"/>
	<path class="s14" d="m1007-2q0 2 0 4-2 0.5-4 1 0-1.5 0-3-1.1 0.1-2.2 0.2c-7.7 0.7-15.5 0.9-23.3 0.9-1.9 0-1.9 0-3.9 0q-5.2 0-10.5 0-5.5 0-11 0-10.4 0-20.8 0-11.8 0-23.6 0-24.4-0.1-48.7-0.1 0-1 0-2 25.2-0.2 50.4-0.4 11.7-0.1 23.3-0.2 10.3-0.1 20.5-0.1 5.3-0.1 10.7-0.1c28.8-0.2 28.8-0.2 43.1-0.2z"/>
	<path class="s15" d="m965 53q0.5 0 1 0 0.3 42.8 0.5 85.6 0.1 19.9 0.2 39.7 0.1 17.3 0.2 34.7 0.1 9.1 0.1 18.3 0.1 8.6 0.1 17.3 0 3.1 0.1 6.3 0 4.3 0 8.7 0 1.2 0 2.5c0 5.5-0.8 10.5-2.2 15.9q-0.5 0-1 0c0.3-75.6 0.7-151.1 1-229z"/>
	<path class="s16" d="m250 198q0.5 0 1 0 0 6.1 0.1 12.3 0 2 0 4.1c0 6.5 0 13-0.3 19.4q-0.1 1.1-0.2 2.3c-0.9 2.7-2.3 3.4-4.7 4.7q-1.3 0.6-2.5 1.1c-2.3 1.1-3.7 2.2-5.6 3.9-4.3 3.3-9.2 2.5-14.4 2.2-3.4-0.2-3.4-0.2-6.2 1-3.5 1.1-6.1 1.1-9.7 1q-1.8-0.1-3.6-0.2-1.9-0.1-3.8-0.2-1.9-0.1-3.8-0.1-4.6-0.3-9.3-0.5 0-1.5 0-3-1.5 0-3 0c-0.3-3.2-0.2-4.7 1.5-7.5 1-1.1 1-1.1 2-2.3q1-1.2 2-2.4 0.7-0.9 1.5-1.8c0 4-1.8 5.7-4 9-0.6 2.1-0.6 2.1-1 4 17.5 2.2 39.1 3.5 55-5q1.7-0.5 3.4-1.1c3.7-2.7 3.5-5.2 4.2-9.6 0.7-6 0.9-12 1-18q0.1-1.9 0.1-3.9 0.2-4.7 0.3-9.4z"/>
	<path class="s17" d="m663 121q1 0.5 2 1 0 16.6 0.1 33.2 0 7.7 0 15.4 0 7.4 0 14.9 0 2.8 0 5.7 0 3.9 0 7.9 0 1.2 0 2.4c0 5.4 0 5.4-1.1 6.5q-2.5 0.1-5.1 0.1c-1.3-0.1-1.3-0.1-2.7-0.1q-1.1 0-2.2 0 0-0.5 0-1c3 0 5.9 0 9 0q0-1.6 0-3.2-0.3-15-0.4-30-0.1-7.7-0.2-15.4-0.2-7.4-0.2-14.9-0.1-2.8-0.1-5.7-0.1-3.9-0.1-7.9 0-1.2-0.1-2.4 0-2.7 0.1-5.5 0.5-0.5 1-1z"/>
	<path class="s18" d="m767 178q1.5 0 3 0c1 1.3 1.9 2.7 2.8 4.1 1.5 2.3 3.1 4.5 4.8 6.7q0.9 1.2 1.8 2.3c1.5 2 1.5 2 3.6 2.9-0.5 2.2-1 4-2 6q-1 0-2 0-0.5-2.5-1-5-3-0.5-6-1 0 1 0 2-1 0-2 0-0.1 0.9-0.2 1.9-0.1 1.2-0.2 2.5-0.2 1.2-0.3 2.4c-0.3 2.2-0.3 2.2-1.3 4.2q-1-0.5-2-1c0.3-9.2 0.7-18.5 1-28z"/>
	<path class="s19" d="m479 127c1.1 0.5 1.1 0.5 2.3 1 2.7 1.2 2.7 1.2 5.7 1q1 0 2 0 0 1.5 0 3 1.5 0.5 3 1c0.1 0.9 0.1 0.9 0.3 1.9 0.6 2.5 0.6 2.5 4.1 4q1.8 0.5 3.6 1.1 1.5-1 3-2 0 1 0 2 2-1 4-2c0.4 3.9 0.4 5.5-2 8.7q-1 1.1-2 2.3 0 1.5 0 3-1 0-2 0-0.5 1.5-1 3-0.5 0-1 0-0.4-1.2-0.7-2.5c-3.9-10.8-9.8-18.1-19.3-24.5q0-0.5 0-1z"/>
	<path class="s20" d="m402 120q1 0 2 0 1.3 2.1 2.5 4.3c0.7 1.1 0.7 1.1 1.4 2.3 1.1 2.4 1.1 2.4 1.1 6.4q1 0 2 0 0.5-1.5 1-3 1 0.5 2 1 1.5-0.5 3-1 2-0.5 4-1 0 1 0 2c-3 2-3 2-6 2q2 1 4 2 0 1 0 2-2 0-4 0-0.2 1.8-0.4 3.8c-0.6 5.7-1.6 11.5-2.6 17.2q-0.5 0-1 0 0-1.5-0.1-3c-0.4-12.5-2.7-23.9-8.9-35zm21 10q1.5 0.5 3 1-2 2-4 4-1.5-0.5-3-1 2-2 4-4z"/>
	<path class="s21" d="m140 147q1 0.5 2 1c0.2 4 0.2 6.6-1.5 10.4-1.6 3.9-1.7 6.4-1.3 10.6-0.3 2.6-1.3 3.2-3.2 5-0.9 2.2-0.9 2.2-1.6 4.6q-0.3 1.3-0.7 2.7c-0.7 2.5-1.2 5-1.6 7.6-0.8 3.7-2 5.7-5.1 8.1-0.2-5.8 0.4-10.3 2.3-15.8q0.3-1 0.6-2.1 1.1-3.1 2.1-6.1 0.5-1.6 1.1-3.2c1.5-4.2 3-8.1 5.2-12 1.9-3.8 2.1-6.6 1.7-10.8z"/>
	<path class="s22" d="m768 98q0.5 0 1 0c0 10.9 0 21.8 0 33q1 0 2 0 0 1.5 0 3 1 0 2 0 0.5-1.5 1-3c2.5-0.5 2.5-0.5 5-1q0-1 0-2 2-1 4-2c-1.6 4-4.4 6.8-7.4 9.8q-0.8 0.7-1.5 1.5c-1.3 1.3-2.7 2.5-4.1 3.7q-1.5 0-3 0 0-7.5-0.1-15 0-2.5 0-5.1 0-3.7 0-7.3 0-1.2 0-2.3c0-4.5 0.4-8.8 1.1-13.3z"/>
	<path class="s23" d="m217 179c3.6 0.3 7.3 0.7 11 1q0 1 0 2 1 0 2 0 0 1.5 0 3c-1.5 1.4-1.5 1.4-3.4 2.7-0.9 0.6-0.9 0.6-1.9 1.3-1.7 1-1.7 1-3.7 1q0-1.5 0-3c-4-0.3-7.9-0.7-12-1q0.5-2 1-4c2.3-0.7 4.6-1.3 7-2q0-0.5 0-1z"/>
	<path class="s24" d="m160 154q3.3 0.3 6.7 0.8 1.8 0.2 3.7 0.4c3.9 0.9 5.8 2 8.6 4.8q0 1 0 2c1.3 0.4 1.3 0.4 2.6 0.9q4.7 1.5 9.4 3.1 0 1.5 0 3c-12.7-4.9-12.7-4.9-16.8-8.3-2.1-1.9-2.1-1.9-4.9-2-2.3 0.1-2.3 0.1-3.3 1.3q-3 0.1-6.1 0.1c-1.6-0.1-1.6-0.1-3.3-0.1q-1.3 0-2.6 0c-0.7 3-1.3 5.9-2 9q-1 0-2 0c0.3-3 0.7-5.9 1-9q1.7-0.6 3.4-1.3c3.8-1.4 3.8-1.4 5.6-4.7z"/>
	<path class="s25" d="m149 169q0.5 1 1 2-1.4 3.5-3 7-1 0-2 0c-0.2 1.2-0.2 1.2-0.3 2.4-0.6 2.8-1.2 5.3-2.1 8.1-1.8 5.8-2.6 11.6-3.3 17.6q-0.2 1.6-0.4 3.2-0.5 3.9-0.9 7.7-0.5 0-1 0c-0.3-3-0.7-5.9-1-9q-1 0-2 0c0-7.6 2.2-13.3 5.6-20.1 1.1-2.4 1.9-4.4 2.4-6.9q1 0 2 0-0.5-2.5-1-5 1.5-1 3-2 1.6-2.5 3-5z"/>
	<path class="s26" d="m243 159q0.5 0 1 0c0.5 6.3 0.5 6.3-1.5 9.2-3.5 2.5-6.9 2.4-11.1 2.2q-1.2 0-2.4 0c-6.3-0.2-12.1-1.2-18-3.4q-0.2-0.9-0.3-1.9-0.4-1-0.7-2.1c-2.5-1.3-2.5-1.3-5-2 2.3-0.8 3.6-1.1 6-0.3 1 0.5 1 0.5 2.1 1.1 7.5 3.5 16.4 6.8 24.9 5.2 2.7-1.9 3.7-3.1 4.8-6.3q0.1-0.8 0.2-1.7z"/>
	<path class="s27" d="m298 180c1.4 3.9 1 7 0 11-1.5 2.3-3.1 4-5 6q-1-0.5-2-1 1.1-2.6 2.2-5.2c0.7-1.6 1.3-3.2 1.8-4.8q1 0 2 0 0-2.5 0-5-1.2 0.2-2.5 0.5c-3.9 0.6-7.6 0.6-11.5 0.5q0 1 0 2c-1.5 0.2-1.5 0.2-3.1 0.5-4.4 1.2-6 4-8.5 7.7-1.8 2.3-3.5 3.1-6.4 3.8q1-3 2-6 1.5 0 3 0 0-1.5 0-3 1 0 2 0 0.5-1.5 1-3 1 0 2 0 0-1 0-2c15.7-2.3 15.7-2.3 23-2z"/>
	<path class="s28" d="m216 195c-2.3 3.5-4 5.2-7.9 6.4-5.9 1.9-8.6 6.5-12.1 11.3-2 2.3-2 2.3-5.1 3.8-3.5 1.8-3.7 2.9-4.9 6.5-1.9 2.3-1.9 2.3-4 4q-1.5 0-3 0c2.2-6.9 8.3-11.8 14-16q1 0 2 0 0.4-0.9 0.8-1.7c1.4-2.6 3-4.3 5.1-6.4q1-1 2-2c8.8-8.1 8.8-8.1 13.1-5.9z"/>
	<path class="s29" d="m171 71q-0.5 1.5-1 3 1.5 1.5 3 3c-3.4-0.4-5.8-1.4-8.8-3.1-4.4-2.3-8.3-2.3-13.2-1.9-0.2 0.9-0.2 0.9-0.3 1.8-1.2 3.7-4.3 5.6-7.1 7.9-0.9 0.7-0.9 0.7-1.9 1.5-4.3 3.6-4.3 3.6-6.7 4.8 1.9-5.1 6.3-7.6 10.5-10.8 2.3-2.1 3.3-3.4 4.5-6.2 5.7-5.3 14.6-2.8 21 0z"/>
	<path class="s30" d="m198.1 55.9c1 0 1 0 2 0q3.2 0 6.3 0 2.1 0 4.2 0.1 5.2 0 10.4 0 0 0.5 0 1-1.3 0-2.6 0-4.7 0.1-9.5 0.3-2.1 0-4.1 0-3 0.1-6 0.2c-1.8 0-1.8 0-3.6 0.1-3.4 0.4-5.3 1.5-8.2 3.4q-1 0-2 0 0.5 1.5 1 3c-0.9 2.2-0.9 2.2-2 4q-2-1.2-4-2.4c-1.1-0.6-1.1-0.6-2.2-1.3-0.9-0.6-0.9-0.6-1.8-1.3q0-1 0-2c3.4-1.5 5.2-2 9-2q0-1 0-2c4.4-0.9 8.6-1.1 13.1-1.1z"/>
	<path class="s31" d="m138 217c2 1 2 1 4 2q0 1 0 2 1 0.4 1.9 0.8c2.1 1.2 2.1 1.2 3.1 4.2 1.8 1 1.8 1 4 2q2.6 1.7 5.2 3.4c4.8 3.2 9.3 5.1 14.8 6.6q0 0.5 0 1c-8.8 0.4-8.8 0.4-13-3q0-1 0-2c-2.3 0-4.6 0-7 0q-0.4-1-0.8-1.9c-1-2.3-1-2.3-3.3-2.8q-0.9-0.2-1.9-0.3 0-2 0-4-1.2-0.4-2.4-0.9c-2.6-1.1-2.6-1.1-4.6-3.1q0-2 0-4z"/>
	<path class="s32" d="m202 52c14.8-0.4 14.8-0.4 21 2q0 1 0 2 1 0.5 2 1c-11.2-0.3-22.4-0.7-34-1q0-0.5 0-1c5.4-0.5 5.4-0.5 11-1q0-1 0-2z"/>
	<path class="s13" d="m396 188q1.5 0.5 3 1-1.2 1.1-2.4 2.3c-2.6 2.4-2.6 2.4-3.7 5q-0.5 0.8-0.9 1.7-1.5 0.5-3 1-0.5 1.5-1 3c-2 0.9-2 0.9-4.6 1.6-1.4 0.3-1.4 0.3-2.7 0.7q-1.4 0.3-2.7 0.7-2.1 0.6-4.1 1.2-1.4 0.4-2.9 0.8 0-1 0-2 1.2-0.5 2.3-1.1c8.8-4.2 16-8.8 22.7-15.9z"/>
	<path class="s33" d="m221 57c6.2-0.3 11.1 0.6 17 2.5q1.2 0.4 2.3 0.7 2.9 0.9 5.7 1.8 0 1 0 2 0.9 0.2 1.8 0.4c2.2 0.6 2.2 0.6 5.2 2.6q0 1 0 2c-6.3 2.4-6.3 2.4-10 1 2-1 4-2 6-3-5.2-3.8-11-4.4-17.1-5.5-7.8-1.4-7.8-1.4-10.9-4.5z"/>
	<path class="s34" d="m241 124c2.7 1.4 3 3.3 4.1 6 0.9 2 1.8 3.7 2.9 5.6 2 3.4 2 3.4 3.6 6.8 1.1 2.7 1.1 2.7 3.4 3.6 0 2.6 0 5.3 0 8q-0.4-0.9-0.8-1.7c-1.2-2.2-2.4-4.2-3.7-6.3-1.3-2-2.5-4-3.5-6.2-1.3-2.3-2.6-2.8-5-3.8q0.5-1.5 1-3-0.5-0.9-0.9-1.9c-1.3-2.5-1.3-4.3-1.1-7.1z"/>
	<path class="s35" d="m183 67q1.1 0.7 2.2 1.4c2.6 1.5 5.1 2.5 7.8 3.6q1.5 1 3 2 3 0.6 6 1 0-1 0-2c6.1-0.3 10.8-0.5 16 3 0.5 1 0.5 1 1 2q-1.5 0-3 0 0-1 0-2c-2.3 0-4.6 0-7 0q0-1 0-2-1.1 0.5-2.3 1c-4.2 1.1-7.9 1.1-12.2 1-2.6-0.1-2.6-0.1-5.5 1q-0.6-1.4-1.3-2.9c-1.5-3.3-1.5-3.3-4.7-5.1q0-1 0-2z"/>
	<path class="s36" d="m718.1 139.6q0.9 0.7 1.9 1.4c-2.4 1.4-3.5 2.1-6.3 1.6q-0.8-0.3-1.7-0.6 1 0 2 0 0-1 0-2-2-0.5-4-1-0.5 1.5-1 3-1 0-2 0 0 1 0 2 1 0 2 0 0 1 0 2-3-1-6-2 0.5-1 1-2 1 0 2 0 0-1 0-2c-4.5 1.5-4.5 1.5-9 3 6.2-6.7 12.8-7.7 21.1-3.4z"/>
	<path class="s37" d="m262 82c-2.7 2.7-5.4 3.2-8.9 4.2-2.3 0.7-2.3 0.7-4.1 2.8q-3 0-6 0-1 0.5-2.1 1.1c-2.6 1.2-4.2 0.7-6.9-0.1 2.8-2.8 5.2-2.6 9-3q0-1 0-2c12.5-3.4 12.5-3.4 19-3z"/>
	<path class="s38" d="m191 169c5.6 0.3 11.2 0.7 17 1q0.5 2 1 4 1.4 0.1 2.8 0.3c3.6 0.8 4.8 1.9 7.2 4.7-8.7-0.9-21.7-3.7-28-10z"/>
	<path class="s39" d="m136 105c4.6 3.6 7.9 7 11 12 3.1 1.6 6.4 1.3 9.9 1.4q1.1 0 2.2 0.1c2.4 0.1 2.4 0.1 5.9-0.5 2.4-2.3 2.4-2.3 4-5q2.9-2.1 6-4c-1.6 3.8-4 6.2-7 9q-1 1-2 2c-14.8 1.5-14.8 1.5-20.7-1.3-1.7-1.5-3-2.9-4.3-4.7q-1-1-2-2-1 0-2 0c-0.3-2.3-0.7-4.6-1-7z"/>
	<path class="s40" d="m290 197c1 2 1 2 0.5 3.9-3.9 8.9-10.5 16.5-18.5 22.1q-1.5 0-3 0 0.8-0.8 1.7-1.5c10.9-10.4 10.9-10.4 17.3-23.5q1-0.5 2-1z"/>
	<path class="s41" d="m230 198c2.1 0.4 2.1 0.4 4 1q-0.8 0.4-1.6 0.8c-5.6 2.9-10.3 6.4-15.1 10.4-2.1 1.6-4 2.8-6.3 3.8q0-1 0-2c1.2-0.9 1.2-0.9 2.4-1.8 2.8-2.4 3.5-3.8 4.6-7.2q0.5-1.5 1-3c0.9 0 0.9 0 1.9 0.1 1.2 0 1.2 0 2.5 0 1.2 0.1 1.2 0.1 2.4 0.1 2.4 0 2.4 0 4.2-2.2z"/>
	<path class="s42" d="m302 162q0.5 0 1 0 0 2.5 0 5-1.5 0.5-3 1 0 1 0 2-2.5 1-5 2 0-1.5 0-3-0.9 0.2-1.9 0.5c-4.2 0.7-8.2 0.6-12.4 0.6-1.3 0-1.3 0-2.5-0.1q-3.1 0-6.2 0 0.5-2 1-4 0.5 1 1 2 5-0.2 10.1-0.4 1.4 0 2.8-0.1c5.4-0.2 10-0.8 15.1-2.5q0-1.5 0-3z"/>
	<path class="s43" d="m182 83q2.5 0 5 0 0 1 0 2 1 0 2 0c0.7 15.7 0.7 15.7-4 23q-1 0-2 0 0-1 0-2-2 0.5-4 1c3.5-3.5 3.5-3.5 7-7q0.4-3.6 0.6-7.1 0.1-1.9 0.3-3.9 0-1.5 0.1-3c-2.5-1-2.5-1-5-2q0-0.5 0-1z"/>
	<path class="s44" d="m251 71q-0.9 0.3-1.8 0.6c-5 1.5-5 1.5-9.4 4.1-2.4 1.7-3.9 1.4-6.8 1.3q-0.9 0.5-1.8 1c-2.7 1.2-4.6 1.2-7.4 1.1q-1.4 0-2.8 0c-1-0.1-1-0.1-2-0.1q0-0.5 0-1c0.8-0.1 0.8-0.1 1.7-0.3 4-0.8 7.5-1.7 11.2-3.7 5.7-3 12.8-5 19.1-3z"/>
	<path class="s45" d="m189 114q1 0.5 2 1c-2.5 2.5-4.9 4.9-7.7 7.1-2.8 2.3-4.1 4.3-4.5 8q0 1.1 0 2.2 0 1.2 0 2.5c0 1.2 0 1.2 0.1 2.5 0 1.2 0 1.2 0 2.5q0 3.1 0.1 6.2-0.5 0-1 0c-0.3-4.6-0.7-9.2-1-14q-1 0-2 0c-0.6-2.6-0.6-2.6 0-6 2.1-2 4.3-3.6 6.7-5.3 2.7-2 5-4.2 7.3-6.7z"/>
	<path class="s46" d="m580 125q1 0 2 0c-1 4-2 7.9-3 12q-1 0-2 0-0.4 1.7-0.8 3.4-0.5 2.2-1 4.4-0.3 1.1-0.5 2.2c-1.6 6.8-1.6 6.8-4.7 9q-1-0.5-2-1c1-3 2-5.9 3-9q1 0 2 0 0.2-1.3 0.3-2.6c0.7-3.6 1.8-6.7 3.2-10.2 0.7-1.6 0.7-1.6 1.3-3.4q1-2.4 2.2-4.8z"/>
	<path class="s47" d="m250 198q0.5 0 1 0 0 6.1 0.1 12.3 0 2 0 4.1c0.1 18.6 0.1 18.6-1.1 23.6-2.3 2.2-2.3 2.2-5 3-2.3-0.3-2.3-0.3-4-1q1.4-0.4 2.9-0.8c3.2-1.8 3.2-1.8 3.8-4.3 1.3-7.9 1.7-15.6 1.9-23.6q0.1-1.9 0.1-3.9 0.2-4.7 0.3-9.4z"/>
	<path class="s48" d="m149 169q0.5 1 1 2-1.4 3.5-3 7-1 0-2 0-0.2 1.2-0.3 2.4c-0.6 3-1.3 5.7-2.2 8.5-1.3 4.1-2 7.9-2.5 12.1q-0.5 0-1 0c-0.3-7.4-0.1-13.2 3-20q1 0 2 0-0.5-2.5-1-5 1.5-1 3-2 1.6-2.5 3-5z"/>
	<path class="s49" d="m792 183q0.8 0.4 1.6 0.9c2.8 1.3 5.5 2.2 8.4 3.1q0 2.5 0 5 1.5 0 3 0c2.9 6.6 2.9 6.6 4 10q-1 0-2 0c-1.9-2.1-1.9-2.1-4.1-4.9q-1.1-1.3-2.2-2.7c-1.7-2.4-1.7-2.4-1.7-4.4q-0.9-0.3-1.8-0.7c-2.8-1.6-3.7-3.5-5.2-6.3z"/>
	<path class="s50" d="m297 181q0 2.5 0 5-1 0-2 0-0.1 1.6-0.3 3.3c-0.8 4-1.6 5.2-4.7 7.7q0-3 0-6 1.5-0.5 3-1-0.5-3-1-6c-3-0.3-5.9-0.7-9-1q0-0.5 0-1c4.7-0.7 9.2-1.1 14-1z"/>
	<path class="s51" d="m691 158q0.5 0 1 0c-0.3 9.2-0.7 18.5-1 28q-1-0.5-2-1-0.1-5.9-0.1-11.8-0.1-1.7-0.1-3.4 0-1.6 0-3.3 0-1.4 0-3c0.2-2.5 0.2-2.5 2.2-5.5z"/>
	<path class="s52" d="m113 128q0.5 1 1 2-0.5 1.5-1 3-0.1 3.4-0.1 6.8c0 1 0 1 0 2q0 2.1 0 4.2 0 3.2 0 6.3c0 7 0.1 13.8 1.1 20.7q-1.5-1-3-2c-0.4-2.7-0.6-5.1-0.6-7.8q-0.1-1.2-0.1-2.4-0.1-2.5-0.1-4.9-0.1-3.8-0.3-7.6 0-2.4-0.1-4.8 0-1.1-0.1-2.3c0-5.1 1-8.6 3.3-13.2z"/>
	<path class="s53" d="m961 287q1 1 2 2c-4.6 8.5-10.3 18.9-20 22q0 1 0 2-1.5-0.5-3-1 1.1-0.8 2.2-1.6c8.4-6.6 14.4-13.6 18.8-23.4z"/>
	<path class="s54" d="m211 215c-1.4 0.9-1.4 0.9-2.9 1.8-3.1 1.8-3.1 1.8-4 4.1-1.3 2.6-2.9 3.9-5 5.7q-1.1 0.9-2.1 1.8c-2 1.6-2 1.6-5 3.6 1.1-2.5 2-4 4.1-5.9 2.4-2.6 2.4-4.6 2.9-8.1 4-2.7 7.3-4.6 12-3z"/>
	<path class="s55" d="m241 63c3.5 0.6 6 2.1 9 4q-2 1-4 2-1.4 0.7-2.8 1.5c-3.7 1.7-7.2 2.6-11.2 3.5q0.5-1.5 1-3c1.8-0.7 1.8-0.7 4.1-1.2 1.1-0.2 1.1-0.2 2.2-0.5q0.8-0.1 1.7-0.3 0-3 0-6z"/>
	<path class="s56" d="m648 191q0.5 0 1 0c0.3 5.3 0.7 10.6 1 16 4.3 0.3 8.6 0.7 13 1q0 0.5 0 1c-5 0-9.9 0-15 0-1.1-3.4-1.1-6-1.1-9.6q0-1.7 0-3.5c0.1-2.9 0.1-2.9 1.1-4.9z"/>
	<path class="s57" d="m533 162c3.9 4.8 3.9 4.8 5 7q1.5 0 3 0-0.2 1.2-0.5 2.4c-0.8 4-0.8 4 1.5 7.6q0 1.5 0 3-1.5 0-3 0-1.5-3.9-3-7.8-0.4-1-0.9-2.2-0.4-1-0.8-2.1-0.4-1-0.7-2c-0.6-1.9-0.6-1.9-0.6-5.9z"/>
	<path class="s58" d="m121 111c5.6 1.3 8 5.4 11 10q1 2 2 4-1.8-1.4-3.5-2.9-1-0.8-2-1.6-0.7-0.7-1.5-1.5 0-1 0-2c-3.4-0.2-3.4-0.2-7 0q-1 1-2 2c0.5-3.4 1.1-5.1 3-8z"/>
	<path class="s59" d="m244 242q-0.8 0.4-1.7 0.8c-1.1 0.5-1.1 0.5-2.2 1.1q-1 0.5-2.2 1c-2.1 1.1-2.1 1.1-3.9 3.1-1.9 0.1-1.9 0.1-4.1 0q-1.2-0.1-2.5-0.2-1.2-0.1-2.5-0.2-1.3-0.1-2.6-0.1-3.2-0.3-6.3-0.5 0-0.5 0-1c1.6-0.2 1.6-0.2 3.2-0.3 9-0.9 9-0.9 17.6-3.4 3.3-1.4 3.9-1.4 7.2-0.3z"/>
	<path class="s60" d="m489 177q0 1 0 2 3-0.5 6-1 0 1 0 2 1 0 2 0 0 1 0 2-2 0-4 0 0.8 0.6 1.6 1.3 0.7 0.8 1.4 1.7c-0.3 2.2-0.3 2.2-1 4q-0.3-0.9-0.6-1.8c-1.9-3-3.9-3.9-7-5.5q-1.5-0.7-3.1-1.5-1.1-0.6-2.3-1.2 0-0.5 0-1c4.8-1 4.8-1 7-1z"/>
	<path class="s61" d="m139 84c1 1.9 1 1.9 2 4-0.6 2.1-0.6 2.1-2 4q-1 0.5-2 0.9c-2.7 1.5-3.1 3.2-4 6.1q-1-1-2-2c0.3-4.2 1.8-6.3 4.6-9.3q0.9-1.1 1.9-2.1 0.7-0.8 1.5-1.6z"/>
	<path class="s62" d="m171 157q-1 0.5-1.9 0.9c-2 0.9-2 0.9-3.1 2.1q-3 0.1-6.1 0.1c-1.6-0.1-1.6-0.1-3.3-0.1q-1.3 0-2.6 0c-0.7 3-1.3 5.9-2 9q-1 0-2 0 0.1-2.2 0.3-4.4 0.1-1.2 0.2-2.4c0.5-2.2 0.5-2.2 3.5-4.2 2.5-0.4 2.5-0.4 5.3-0.6q1.5-0.1 3-0.2c2.9-0.2 5.8-0.3 8.7-0.2z"/>
	<path class="s49" d="m788 143q1 0 2 0 0 1.5 0 3-1 0-2 0 0 1 0 2-1.5 0-3 0-0.5 1.5-1 3c-1.6 1.6-1.6 1.6-3.4 3.2q-1 0.8-1.9 1.6c-1.7 1.2-1.7 1.2-3.7 1.2 1.1-3.4 2.6-4.5 5.4-6.7 2.3-1.9 4.5-4.1 6.6-6.3q0.5-0.5 1-1zm-15 14q1 0.5 2 1 0 1 0 2 1 1 2 2-2-0.5-4-1 0-2 0-4z"/>
	<path class="s63" d="m978 23q0.5 1.5 1 3c-1 1.8-1 1.8-2.6 3.8-3.6 5.1-5.4 10.5-7.3 16.4-1.1 2.8-1.1 2.8-3.1 3.8 1.3-10.3 5.3-19.1 12-27z"/>
	<path class="s64" d="m566 161c1.4 4.1 0.1 6.9-1.2 10.8q-0.3 1.1-0.6 2.1c-1.5 4.6-3.4 8.2-6.2 12.1q-1 1.5-2 3-0.5-1-1-2c1-2.6 2-5 3.2-7.5q1-2.2 1.9-4.3 0.5-1.1 1-2.2c1.8-3.9 3.3-8 4.9-12z"/>
	<path class="s65" d="m243 86c-4.4 2.9-8.9 3.7-14 5-0.7 4.3-1.3 8.6-2 13q-0.5 0-1 0-0.1-3.2-0.2-6.3 0-1.8-0.1-3.6c0.3-3.1 0.3-3.1 1.6-4.9 5-3.5 10-3.4 15.7-3.2z"/>
	<path class="s66" d="m139 122c0.9 7.8 1 15.2 0 23q-0.5 0-1 0c0-4.9 0-9.9 0-15q-1.5-0.5-3-1-0.5-2.5-1-5c3-2 3-2 5-2z"/>
	<path class="s67" d="m567 118q0 1 0 2 2.5 0 5 0 0.5 1 1 2-1.6 0.1-3.3 0.1c-3.9 0.5-3.9 0.5-5.6 4q-0.6 1.4-1.1 2.9-1 0-2 0c-0.4-6.3-0.4-6.3 1.3-9.4 1.7-1.6 1.7-1.6 4.7-1.6z"/>
	<path class="s68" d="m479 127c1.1 0.5 1.1 0.5 2.3 1 2.7 1.2 2.7 1.2 5.7 1q1 0 2 0 0 1.5 0 3 1.5 0.5 3 1 0.5 2 1 4c1.5 1.7 1.5 1.7 3 3q-1 1-2 2-0.7-0.9-1.5-1.8c-4.2-4.9-8.2-8.7-13.5-12.2q0-0.5 0-1z"/>
	<path class="s69" d="m241 195c5.8 0.9 5.8 0.9 8 2 0 8.3 0 16.5 0 25q-0.5 0-1 0-0.1-1.9-0.1-3.8-0.2-2.4-0.3-4.9 0-1.2-0.1-2.5c-0.2-4.3-0.4-7.9-2.5-11.8-2-1.3-2-1.3-4-2q0-1 0-2z"/>
	<path class="s70" d="m263 195q1 0.5 2 1-0.2 6.3-0.4 12.7-0.1 1.8-0.2 3.6 0 1.7-0.1 3.5c0 1.6 0 1.6-0.1 3.2-0.2 2.8-0.6 5.3-1.2 8q-0.5 0-1 0c-2.3-7.4-2.3-7.4-1.1-10.2 1.6-4.1 1.6-8.2 1.7-12.6q0.1-1.3 0.1-2.7 0.2-3.2 0.3-6.5z"/>
	<path class="s71" d="m386 103q1.1 0.5 2.2 0.9c2.6 1 5.1 1.6 7.8 2.1q0 2 0 4 1.5 0 3 0 0 1.5 0 3c1.4 1.7 1.4 1.7 3 3q-0.5 1.5-1 3-1-1.1-2-2.2-1.3-1.5-2.7-3-1.3-1.4-2.6-2.9c-2.5-2.7-5.1-5.3-7.7-7.9z"/>
	<path class="s72" d="m695 142c2 3 2 3 2 5q-1 0-2 0-0.5 1.5-1 3-1 0-2 0 0.2 1 0.5 2.1c0.6 3.3 0.6 6.5 0.5 9.9q-1-1.5-2-3-1 1-2 2c1.6-13.8 1.6-13.8 6-19z"/>
	<path class="s73" d="m789 118q0.7 0.2 1.5 0.5c3.4 0.7 6.8 0.9 10.3 1.1q1 0 2.1 0.1 2.5 0.2 5.1 0.3-0.5 1-1 2c-9.4 0.5-9.4 0.5-19 1q0.5-2.5 1-5z"/>
	<path class="s72" d="m684 119q1 0 2 0 0 1 0 2-1 0-2 0 0-1 0-2zm6 4q0.5 1 1 2 1.5 0.5 3 1-0.5 1.5-1 3-1.5 0-3 0-1-2-2-4c-4.6 0-9.2 0-14 0q-0.5-1-1-2c6.3-1.6 10.9-2.6 17 0z"/>
	<path class="s74" d="m196 228c1 2.7 1 3.9 0.3 6.7-1.3 2.3-1.3 2.3-4.3 3.3-1 1.5-1 1.5-2 3q-1.5 0-3 0c1.4-3 3.1-5.6 5.1-8.2q0.7-1 1.6-2.1c1.3-1.7 1.3-1.7 2.3-2.7z"/>
	<path class="s75" d="m147 119c6.6 0 13.2 0 20 0q0 1 0 2c-6.7 2.3-13.1 2.9-20 1q0-1.5 0-3z"/>
	<path class="s76" d="m264 196q0.5 0 1 0c0 9.6 0 19.1 0 29q2-0.5 4-1-1 1.5-2 3-2 0-4 0c0.3-10.2 0.7-20.5 1-31z"/>
	<path class="s77" d="m132 182c1.5 3.1 0.5 5.5-0.3 8.8-0.9 2.8-2.3 4.4-4.7 6.2-0.2-5.1-0.2-9.2 2-14q1.5-0.5 3-1z"/>
	<path class="s78" d="m431 172q1.5 0 3 0 0.4 1.7 0.8 3.4c0.8 3.7 0.8 3.7 3.3 4.8q0.9 0.4 1.9 0.8c0.6 1.9 0.6 1.9 1 4 1 1.5 1 1.5 2 3-4.9-2.1-8-5.7-11-10-0.9-3.5-0.9-3.5-1-6z"/>
	<path class="s79" d="m239 152c3.1 2.4 3.9 3.5 4.5 7.5-0.6 4-1.4 5.1-4.5 7.5-1.1-1.8-1.1-1.8-2-4q0.5-1.5 1-3 1 0 2 0c-0.3-2.6-0.7-5.3-1-8z"/>
	<path class="s80" d="m200 112c15.3-1.2 15.3-1.2 19.5 1.8 1.4 2 2.6 3.9 3.5 6.2q-0.5 1-1 2-1.5-1.4-3-2.9-0.8-0.8-1.7-1.6c-1.3-1.5-1.3-1.5-1.3-3.5-1.4 0-1.4 0-2.7 0.1q-1.8 0-3.6 0c-1.8 0.1-1.8 0.1-3.6 0.1-3.1-0.2-3.1-0.2-6.1-2.2z"/>
	<path class="s81" d="m278 216q1 0.5 2 1-1.2 1.7-2.3 3.3-0.7 0.9-1.3 1.9c-3.5 4.6-3.5 4.6-6.7 5.3q-1.2 0.1-2.4 0.2-1.2 0.1-2.4 0.2-1 0-1.9 0.1 0.8-0.3 1.6-0.7c3.1-1.7 5.6-4 8.2-6.4q0.7-0.7 1.5-1.4 1.8-1.8 3.7-3.5z"/>
	<path class="s82" d="m201 213q0.5 2 1 4-1.5 0.5-3 1 0 1 0 2c-2 1-2 1-4 2-0.9-2.5-1.1-3.6-0.2-6.2 1.8-2.8 2.9-2.8 6.2-2.8z"/>
	<path class="s83" d="m200.6 109.9q1.1 0 2.2 0c4.8 0 9.5 0.3 14.2 1.1q0 0.5 0 1c-7.1 0.7-13.8 1.2-20.9 0.1-2.5-0.1-3.9 0.6-6.1 1.9q0.5-1.5 1-3c3.1-1.5 6.3-1.1 9.6-1.1z"/>
	<path class="s84" d="m990-2c5.6 0 11.2 0 17 0q0 2 0 4-2 0.5-4 1 0-1.5 0-3-1.8 0-3.7 0.1c-3.2 0-6.1-0.3-9.3-1.1q0-0.5 0-1z"/>
	<path class="s85" d="m145.2 172.9q0.9 0.6 1.8 1.1-0.7 0.6-1.5 1.2c-1.9 1.9-1.9 1.9-1.5 5.8q-1 0-2 0-0.5 2-1 4c-1.3-2.5-1.1-4.3-1.1-7.1q0.1-1.4 0.1-2.8 0-1 0-2.1c3-1 3-1 5.2-0.1z"/>
	<path class="s86" d="m439 142q0.5 1.5 1 3-0.9 0.7-1.9 1.5c-2.8 3.4-3.2 6.2-4.1 10.5q1.5 0.5 3 1-3 0-6 0c0.5-4.7 1.1-8.2 4-12q1 0 2 0 1-2 2-4z"/>
	<path class="s87" d="m663 100q1.5 0 3 0 0.5 1.5 1 3-1 0-2 0 0.3 1.2 0.6 2.4c0.4 2.6 0.4 2.6-0.6 4.6-2.5 0.4-2.5 0.4-5.6 0.6q-1.5 0.1-3 0.3-1.2 0-2.4 0.1c2.9-1.5 5.9-2.8 9-4 0-2.3 0-4.6 0-7z"/>
	<path class="s88" d="m212 203q0.5 1.5 1 3c-2.4 2.6-4.9 4.4-8 6q-1.5 0-3 0 0-1 0-2 1-0.5 2-1 0.5-1.5 1-3 1.5 0 3 0 0-1 0-2 2-0.5 4-1z"/>
	<path class="s89" d="m456 136q0.5 1 1 2-2.5 0-5 0-0.5 1.5-1 3c-2.7 1.5-4.3 2.1-7.3 1.6q-0.8-0.3-1.7-0.6c3.2-4.4 6.8-4.8 12-5.7q1-0.1 2-0.3z"/>
	<path class="s90" d="m493 189q1 0 2 0 0 3 0 6-2-0.5-4-1c-0.3 0.9-0.3 0.9-0.7 1.8-1.6 2.8-3.7 4.3-6.3 6.2q-1-0.5-2-1 1-1 2.1-2.1c2.7-2.7 5.2-5.6 7.6-8.5q0.6-0.7 1.3-1.4z"/>
	<path class="s91" d="m410 159c2.2 3.3 2.5 4.2 2 8-1.3 2.4-1.3 2.4-3 5q-1.5 3-3 6-1-0.5-2-1c0.4-1.1 0.4-1.1 0.8-2.2 1.9-5.2 3.8-10.4 5.2-15.8z"/>
	<path class="s92" d="m243 159q0.5 0 1 0c0.5 6.2 0.5 6.2-1.5 9.4-3.7 2.4-6.1 2-10.5 1.6q-1.5-1-3-2c0.9 0 0.9 0 1.8-0.1 5.2-0.3 5.2-0.3 9.7-2.7 1.5-2.1 2.1-3.7 2.5-6.2z"/>
	<path class="s93" d="m209 215q1 0.5 2 1c-1.3 2-1.3 2-3 4q-1.5 0-3 0 0.5 1.5 1 3c-2.4 3.6-3.9 3.9-8 5 2.8-4.9 2.8-4.9 5-6q0.7-1.2 1.4-2.4c1.6-2.6 1.6-2.6 4.6-4.6z"/>
	<path class="s94" d="m284 95q0.9 1.1 1.8 2.3c2 2.6 2 2.6 3.8 4.3 1.7 1.7 2.6 3.1 3.4 5.4-0.5 2.1-0.5 2.1-1 4q-0.4-0.8-0.8-1.7-0.5-1.1-1.1-2.2-0.5-1.1-1-2.3c-1-2-1-2-3.1-2.8q-1.5 0.5-3 1c-0.9-2.6-1.1-3.6-0.1-6.3q0.6-0.8 1.1-1.7z"/>
	<path class="s95" d="m545 169c1 2.2 1.1 3.6 0.4 5.8q-1.2 2.6-2.4 5.2-1.5 0-3 0c-1-3-1-3-1-6 1.8-1.9 3.9-3.4 6-5z"/>
	<path class="s96" d="m140 147q1 0.5 2 1c0.3 5.5-0.6 9-3 14q-0.5 1.3-1 2.7c-1 2.4-2.3 4.3-4 6.3 0.3-4.7 1.3-7.9 3.6-12 2.3-4.4 2.9-7.1 2.4-12z"/>
	<path class="s97" d="m402 120q1 0 2 0 1.3 2.1 2.5 4.3c0.7 1.1 0.7 1.1 1.4 2.3 1.1 2.4 1.1 2.4 1.1 6.4q1 0 2 0c0 2.3 0 4.6 0 7-2.3-2.3-2.6-3.5-3.4-6.6-1.3-4.9-3.2-9-5.6-13.4z"/>
	<path class="s98" d="m273 184q1 0.5 2 1c-1.8 4.5-3 7.4-7.3 10q-1.3 0.5-2.7 1 1-3 2-6 1.5 0 3 0 0-1.5 0-3 1 0 2 0 0.5-1.5 1-3z"/>
	<path class="s99" d="m167 158c3.4 0.3 3.4 0.3 7 1q1 1.5 2 3c-3.4-0.5-5.1-1.1-8-3q0 1.5 0 3c-6.9-0.5-6.9-0.5-14-1q0-0.5 0-1 1.3-0.1 2.6-0.2c1.6-0.1 1.6-0.1 3.3-0.2q1.7-0.2 3.4-0.3c2.6 0 2.6 0 3.7-1.3z"/>
	<path class="s100" d="m303 143c3.5 4.6 3.3 5.7 2.8 11.2q-0.1 1.9-0.3 3.8-0.2 1.5-0.5 3-1 0.5-2 1c0-6.3 0-12.5 0-19z"/>
	<path class="s101" d="m124 109q0.5 2 1 4-2-0.5-4-1c-1.3 2.6-2.6 5.3-4 8-1.3-2.5-0.9-3.9-0.6-6.6q0.2-1.2 0.3-2.5 0.2-0.9 0.3-1.9c3.1-1 4-0.9 7 0z"/>
	<path class="s102" d="m183 67q1.1 0.7 2.2 1.4c2.7 1.7 2.7 1.7 5.5 2.6 1.2 0.5 1.2 0.5 2.3 1q0.5 1.5 1 3-2.5 1-5 2-0.6-1.4-1.3-2.9c-1.5-3.3-1.5-3.3-4.7-5.1q0-1 0-2z"/>
	<path class="s103" d="m241 61c2.5 0.5 2.5 0.5 5 1q0 1 0 2 0.9 0.2 1.8 0.4c2.2 0.6 2.2 0.6 5.2 2.6q0 1 0 2c-6.3 2.4-6.3 2.4-10 1 2-1 4-2 6-3q-0.9-0.5-1.8-1.1c-1.1-0.6-1.1-0.6-2.2-1.3q-1.1-0.7-2.3-1.4-0.8-0.6-1.7-1.2 0-0.5 0-1z"/>
	<path class="s104" d="m1003 3q0 1 0 2-2.8 1.8-5.8 3.4c-3.9 2.2-7.1 4.2-10.2 7.6q-1-0.5-2-1c13.3-12 13.3-12 18-12z"/>
	<path class="s105" d="m136 105c4.6 3.6 8 7 11 12q-0.5 1-1 2-0.6-0.8-1.2-1.5-0.8-1-1.6-2-0.8-1-1.6-2c-1.6-1.8-1.6-1.8-4.6-1.5-0.3-2.3-0.7-4.6-1-7z"/>
	<path class="s106" d="m753 92q2.9-0.1 5.8-0.2 1.6 0 3.3-0.1c2.9 0.3 2.9 0.3 5.9 3.3-5.3 0-10.6 0-16 0q0.5-1.5 1-3z"/>
	<path class="s107" d="m174 159q0.8 0.4 1.6 0.8c3 1.5 6 2.6 9.2 3.8 1.7 0.7 1.7 0.7 3.5 1.4q1.3 0.5 2.7 1 0 1.5 0 3-2.5-1-5-2-1.1-0.4-2.2-0.9c-7.7-3.2-7.7-3.2-9.8-7.1z"/>
	<path class="s108" d="m414 139c1.6 4 0.5 7.7-0.4 11.8q-0.3 1-0.5 2.1-0.5 2.5-1.1 5.1-0.5 0-1 0c0-4.9 0-9.9 0-15q1-0.5 2-1 0.5-1.5 1-3z"/>
	<path class="s109" d="m460 136q2.7 0.4 5.3 0.9 1.5 0.2 3 0.5c2.7 0.6 2.7 0.6 5.7 2.6q-0.5 1.5-1 3-0.9-0.2-1.8-0.5c-2.3-0.6-2.3-0.6-5.2-0.5q0-1.5 0-3c-3-0.5-3-0.5-6-1q0-1 0-2z"/>
	<path class="s110" d="m229 91q1 0 2 0c0.6 1.9 0.6 1.9 1 4q-1 1-2 2c-0.6 3.7-1 7.2-1 11-2-2-2-2-2.3-4 0.1-4.7 0.5-8.5 2.3-13z"/>
	<path class="s111" d="m145 178q0.5 2 1 4 1 0 2 0c0 3 0 3-1.4 4.4q-0.8 0.8-1.6 1.6c-1.2 2.1-1.2 2.1-2 4-1.3-3.5-0.7-5.7 0.4-9.3q0.5-1.3 0.9-2.7 0.3-1 0.7-2z"/>
	<path class="s112" d="m293 111q1 0 2 0c4.6 9.2 4.6 9.2 4 15-2-1-2-1-3.1-3.7-0.5-1.6-0.5-1.6-1-3.2q-0.6-1.7-1.1-3.3c-0.8-2.8-0.8-2.8-0.8-4.8z"/>
	<path class="s113" d="m279 88q1.1 0.5 2.3 0.9 2.8 1.1 5.7 2.1c0.3 3 0.7 5.9 1 9q-0.8-1.1-1.7-2.2c-2.3-2.9-2.3-2.9-5-5.5-2.3-2.3-2.3-2.3-2.3-4.3z"/>
	<path class="s114" d="m297 184q0.5 0 1 0c0.6 6 0.6 6-1.1 8.8-1.2 1.5-2.6 2.8-3.9 4.2q-1-0.5-2-1 1.1-2.6 2.2-5.2c0.7-1.6 1.3-3.2 1.8-4.8q1 0 2 0 0-1 0-2z"/>
	<path class="s115" d="m130 177c1 2 1 2 0.5 4.1q-0.4 1.2-0.9 2.5c-1.4 4.5-2.2 8.7-2.6 13.4q-2 0-4 0 1-0.5 2-1c0.6-2.3 0.6-2.3 0.9-5.1 0.9-5 2.2-9.2 4.1-13.9z"/>
	<path class="s116" d="m154 161c2.6 0 5.3 0 8 0-1.1 0.9-1.1 0.9-2.3 1.8-2.6 2-2.6 2-4.4 4-1.3 1.2-1.3 1.2-3.3 1.2 0.9-4.8 0.9-4.8 2-7z"/>
	<path class="s117" d="m238 141q1.5 0.5 3 1c0 3.6 0 7.3 0 11-2-1-2-1-3.2-3.8-0.8-3.2-0.7-5 0.2-8.2z"/>
	<path class="s118" d="m733 133c2.3 0.3 4.6 0.7 7 1q-0.5 2.5-1 5 1 0 2 0 0 2 0 4-1 0-2 0-1.5-2.6-2.9-5.2c-1-1.6-2-3.2-3.1-4.8z"/>
	<path class="s119" d="m127 114q2 0 4 0c2.1 2.3 3 4 4 7q-1 1-2 2c-5.6-5.1-5.6-5.1-6-9z"/>
	<path class="s120" d="m140 129q0.5 0 1 0c0.9 4.1 0.9 6.9 0 11q-0.1 3.5 0 7-1 0-2 0 0-3.1-0.1-6.2 0-1.7 0-3.5c0.1-2.9 0.4-5.5 1.1-8.3z"/>
	<path class="s121" d="m245 232q1 0 2 0 0 2 0 4-1.5 0-3 0 0 1 0 2-2-0.5-4-1 2.5-1 5-2 0-1.5 0-3zm-9 6q2 0 4 0-0.5 1.5-1 3-2 0-4 0 0.5-1.5 1-3z"/>
	<path class="s122" d="m138 217c2 1 2 1 4 2q0 1 0 2 2 1 4 2 0 1.5 0 3c-5.8-2.8-5.8-2.8-8-5q0-2 0-4z"/>
	<path class="s123" d="m767 178q1.5 0 3 0c1.6 4 0.3 7-1 11q-1-0.5-2-1c0-3.3 0-6.6 0-10z"/>
	<path class="s124" d="m261 158c5 0.4 7.4 2.7 11 6q-0.5 1-1 2-2.2-1.4-4.4-2.9-1.3-0.8-2.5-1.6c-2.1-1.5-2.1-1.5-3.1-3.5z"/>
	<path class="s125" d="m178 146c1 0.6 1 0.6 2.1 1.3 2.2 1.3 4.3 2.3 6.7 3.3 3.2 1.4 3.2 1.4 4.2 3.4-8.1-1.3-8.1-1.3-11.6-4-1.4-2-1.4-2-1.4-4z"/>
	<path class="s126" d="m168 113c-1.9 4.9-1.9 4.9-3 6q-3 0.1-6 0c5.8-6 5.8-6 9-6z"/>
	<path class="s127" d="m262 81c9.6-0.9 9.6-0.9 13.1 1.3 1.6 1.7 1.6 1.7 3.9 4.7q-0.5 1-1 2-0.6-0.7-1.2-1.4c-1.9-1.7-3.6-2.6-5.8-3.6q0-1 0-2c-3 0-5.9 0-9 0q0-0.5 0-1z"/>
	<path class="s128" d="m216 195c-2.2 3.4-3.3 4.8-7.3 5.8-1.3 0.1-1.3 0.1-2.7 0.2 1.5-3.1 2.5-4.7 5.6-6.4 2.4-0.6 2.4-0.6 4.4 0.4z"/>
	<path class="s129" d="m149 169q0.5 1 1 2-1.4 3.5-3 7-1 0-2 0-0.5 3-1 6c-1-3-1.3-4.9-1-8q1.5-1 3-2 1.6-2.5 3-5z"/>
	<path class="s130" d="m291 165c-3.1 2.8-5.1 3.4-9.3 3.2q-1.3-0.1-2.7-0.1-1 0-2-0.1c3.8-3.8 8.8-3.1 14-3z"/>
	<path class="s131" d="m157 233q1 0.4 1.9 0.8c4 1.6 8 2.9 12.1 4.2q0 0.5 0 1c-8.8 0.4-8.8 0.4-13-3q-0.5-1.5-1-3z"/>
	<path class="s132" d="m273 170c3 0 5.9 0 9 0-1.5 2-1.5 2-3 4q-2.5-0.5-5-1-0.5-1.5-1-3z"/>
	<path class="s133" d="m207 244q2.3 0.4 4.6 0.9 1.2 0.3 2.5 0.6 0.9 0.3 1.9 0.5 0 0.5 0 1c-6.3 0-12.5 0-19 0q0-0.5 0-1c1-0.1 1-0.1 1.9-0.2 1.3-0.1 1.3-0.1 2.5-0.2q1.3-0.2 2.5-0.3c2.1-0.1 2.1-0.1 3.1-1.3z"/>
	<path class="s134" d="m173 233q1 0.5 2 1-1 2-2 4c-5 0.3-7.9 0-12-3 2.5-1.2 4.3-1.1 7-1q0 1.5 0 3 2 0 4 0 0.5-2 1-4z"/>
	<path class="s135" d="m230 198c2.1 0.4 2.1 0.4 4 1-4.3 2.9-8.1 4.5-13.4 3.6q-0.8-0.3-1.6-0.6 0-1 0-2c0.9 0 0.9 0 1.9 0.1 1.2 0 1.2 0 2.5 0 1.2 0.1 1.2 0.1 2.4 0.1 2.4 0 2.4 0 4.2-2.2z"/>
	<path class="s136" d="m182 83q2.5 0 5 0c1.5 3 1.1 5.8 1.1 9.1q-0.1 1.9-0.1 3.9 0 1.5 0 3-0.5 0-1 0c0-4.3 0-8.6 0-13-2.5-1-2.5-1-5-2q0-0.5 0-1z"/>
	<path class="s137" d="m176 231c0.8 1.6 0.8 1.6 1 4-1.5 2.2-3.2 4-5 6q-2.5-0.5-5-1c3.8-2 3.8-2 6-2 0.2-0.9 0.2-0.9 0.4-1.8 0.6-2.2 0.6-2.2 2.6-5.2z"/>
	<path class="s138" d="m464 190q-0.5 1.5-1 3c-3.6 0-7.3 0-11 0 3.3-3.3 7.5-3 12-3z"/>
	<path class="s139" d="m250 141c1 0.5 1 0.5 2 1q0.5 1.5 1 3 1 0.5 2 1c0 2.6 0 5.3 0 8q-0.4-0.9-0.9-1.9c-1-2.2-1-2.2-3.1-4.1q-0.6-3.5-1-7z"/>
	<path class="s140" d="m522 136c1 0.5 1 0.5 2 1q0 1.5 0 3 1.5 0.5 3 1-1 0-2 0 0.8 1.4 1.6 2.8c1.4 3.2 1.4 3.2 0.4 6.2-2.5-4.6-4.5-8.7-5-14z"/>
	<path class="s141" d="m194 111c3.9 0.2 5.8 0.8 9 3-4 0-7.9 0-12 0q1.5-1.5 3-3z"/>
	<path class="s142" d="m288 100c3.4 1.4 5.2 2.8 7 6 0.2 2.8 0.2 2.8 0 5q-1 0-2 0-0.3-0.8-0.6-1.6-0.4-1.1-0.8-2.2-0.4-1.1-0.7-2.2c-0.9-2.2-0.9-2.2-2.9-5z"/>
	<path class="s143" d="m160 71c5.6 0.5 8.6 1.7 13 5-2.7 1-3.7 1.1-6.4 0q-1.1-0.7-2.3-1.4-1.2-0.7-2.5-1.5-0.9-0.5-1.8-1.1 0-0.5 0-1z"/>
	<path class="s144" d="m217 211c-0.4 2.8-0.8 3.8-2.9 5.8-2.1 1.2-2.1 1.2-4.1 1.2 2.4-7 2.4-7 7-7z"/>
	<path class="s145" d="m219 179c3 0.3 5.9 0.7 9 1q0 1 0 2 1 0 2 0 0 1.5 0 3c-3.8-1.4-7.4-3.2-11-5q0-0.5 0-1z"/>
	<path class="s146" d="m223 122q2 0 4 0c1 3.6 2 7.3 3 11-4.2-2.8-5.4-6.3-7-11z"/>
	<path class="s147" d="m242 82q0.5 1 1 2c2 0.7 2 0.7 4 1-3 0.9-5.6 1.1-8.8 1.1q-1.1-0.1-2.4-0.1-0.9 0-1.8 0 0.5-1 1-2c2.3 0 4.6 0 7 0q0-1 0-2z"/>
	<path class="s148" d="m189 239q1.5 1 3 2 1 0 2 0-0.5 1.5-1 3-3 0-6 0c0.9-3.9 0.9-3.9 2-5z"/>
	<path class="s149" d="m213 190c2.3 0 4.6 0 7 0-2.8 3.1-5.1 4.7-9 6q1-3 2-6z"/>
	<path class="s150" d="m782 126c0 3 0 3-1.5 4.6q-1 0.8-2 1.6-1 0.8-2 1.6-0.7 0.6-1.5 1.2-0.5-2-1-4 2.5-0.5 5-1 0-1 0-2 1.5-1 3-2z"/>
	<path class="s90" d="m375 96c2.3 0.7 4.6 1.3 7 2q0 1 0 2 1.5 0.5 3 1-1 1-2 2-0.8-0.7-1.7-1.4c-2.4-1.6-4.6-2.6-7.3-3.6q0.5-1 1-2z"/>
	<path class="s151" d="m660 93c2.3 2.1 2.3 2.1 4 4-1 0.5-1 0.5-2 1q0-1 0-2-1.9-0.2-3.9-0.4c-2.3-0.2-2.3-0.2-4.1-0.6q-0.5-1-1-2c2.8-1.4 4.1-0.9 7 0z"/>
	<path class="s152" d="m235 196q2 0.5 4 1c-2.6 2-5.3 4-8 6q-1-1-2-2 0.9-0.4 1.9-0.8c2.4-1.2 2.4-1.2 4.1-4.2z"/>
	<path class="s14" d="m783 197c4 1.3 4.8 3.5 7 7q-1.5 0.5-3 1-0.5-1.5-1-3-1.5-0.5-3-1 0-2 0-4z"/>
	<path class="s153" d="m178 128q0.5 0 1 0c1 4.3 2 8.6 3 13q-1.5 0.5-3 1c-0.3-4.6-0.7-9.2-1-14z"/>
	<path class="s154" d="m262 214q0.5 0 1 0c0 4.3 0 8.6 0 13q-0.5 0-1 0c-2.2-7.3-2.2-7.3-1.1-11q0.5-1 1.1-2z"/>
	<path class="s155" d="m138 210q1.5 0.5 3 1 0 3 0 6-1.5 0-3 0c0-2.3 0-4.6 0-7z"/>
	<path class="s156" d="m247 194q1 1.5 2 3c-3.3-0.3-6.6-0.7-10-1q0-1 0-2c2.9-1.5 4.9-0.8 8 0z"/>
	<path class="s157" d="m417 179c4 6 4 6 4 10q-1 0-2 0c-3.1-5.4-3.1-5.4-2.7-8.4q0.4-0.8 0.7-1.6z"/>
	<path class="s158" d="m139 147c2 2 2 2 2.3 4.4-0.4 3-1.3 4.3-3.3 6.6-0.1-7.4-0.1-7.4 1-11z"/>
	<path class="s159" d="m720 142q1.5 0.5 3 1 0 1.5 0 3 1 0 2 0 0.5 1.5 1 3c-1 0.5-1 0.5-2 1q-1.5-1-3-2 0.5-2 1-4-1 0-2 0 0-1 0-2z"/>
	<path class="s160" d="m221 242q1.5 0 3 0 0 1.5 0 3c-4 0-7.9 0-12 0q0-0.5 0-1 3.1-0.3 6.2-0.7c1.8-0.1 1.8-0.1 2.8-1.3z"/>
	<path class="s161" d="m555 190q1 2 2 4-2 3-4 6-0.5 0-1 0c-0.4-4.3 0.6-6.5 3-10z"/>
	<path class="s162" d="m444 188c2.6 0.3 5.3 0.7 8 1q0 1.5 0 3c-4.5-1-4.5-1-9-2q0.5-1 1-2z"/>
	<path class="s17" d="m787 175q1 0 2 0 0.5 2 1 4 1.5 0 3 0-0.5 2-1 4c-2.5-2.3-2.5-2.3-5-5q0-1.5 0-3z"/>
	<path class="s163" d="m706 137q0.5 1 1 2-1.9 1-3.9 2.1c-1.1 0.5-1.1 0.5-2.2 1.1q-0.9 0.4-1.9 0.8-1-0.5-2-1c5.1-4.4 5.1-4.4 9-5z"/>
	<path class="s164" d="m556 129c3 0.5 3 0.5 6 1-0.7 2.3-1.3 4.6-2 7-1.8-2.7-2.9-5-4-8z"/>
	<path class="s165" d="m582 118q1.5 0 3 0 0 1 0 2-1 0-2 0 0 2.5 0 5-1.5-0.5-3-1c0.9-4.9 0.9-4.9 2-6z"/>
	<path class="s166" d="m646 97q2 1 4 2c-1 2.3-2 4.6-3 7q-1-0.5-2-1c0-3.1 0.2-5.1 1-8z"/>
	<path class="s167" d="m160 71q-1 0.4-1.9 0.9c-2.3 0.9-2.3 0.9-3.1 3.1q-2 0-4 0 0-1.5 0-3c3.2-1.1 5.7-1.1 9-1z"/>
	<path class="s168" d="m194 225c2.1 0.4 2.1 0.4 4 1-1.2 0.9-1.2 0.9-2.4 1.9-2.6 2-2.6 2-4.6 4.1 0.7-4.8 0.7-4.8 3-7z"/>
	<path class="s169" d="m124 188q1 0.5 2 1c-0.3 2.3-0.7 4.6-1 7q-1 0-2 0c0.3-2.6 0.7-5.3 1-8z"/>
	<path class="s170" d="m183 143c0.7 2.3 1.3 4.6 2 7-2.4-0.8-2.4-0.8-5-2q-0.5-1.5-1-3c3-2 3-2 4-2z"/>
	<path class="s171" d="m422 129q1 0.5 2 1c-2.3 2.5-2.3 2.5-5 5q-2 0-4 0 0-1 0-2c5.3-3.2 5.3-3.2 7-4z"/>
	<path class="s172" d="m387 127q1.5 0.5 3 1 0.5 3 1 6-1.5 0-3 0c-0.3-2.3-0.7-4.6-1-7z"/>
	<path class="s173" d="m189 114q1 0.5 2 1c-2.6 2.6-4.9 4.9-8 7 1.3-3.9 2.5-5.8 6-8z"/>
	<path class="s174" d="m255 83q-2 0.5-4 1 0 1 0 2c-2.6 0-5.3 0-8 0 4.4-2.2 7-3.1 12-3z"/>
	<path class="s175" d="m160 231c2.3 0.7 4.6 1.3 7 2q0 1 0 2c-3-0.5-3-0.5-6-1q-0.5-1.5-1-3z"/>
	<path class="s176" d="m266 218q1.5 0 3 0c-0.7 2.3-1.3 4.6-2 7q-1 0-2 0c0.3-2.3 0.7-4.6 1-7z"/>
	<path class="s177" d="m122 188c2 3 2 3 1.6 5.7q-0.3 1.1-0.6 2.3-1-0.5-2-1c-0.6-3.1-0.6-3.1-1-6q1-0.5 2-1z"/>
	<path class="s178" d="m228 186c-4.8 4-4.8 4-7 4q0-2 0-4c4.8-1.1 4.8-1.1 7 0z"/>
	<path class="s179" d="m114 173q0.5 0 1 0c2.3 8 2.3 8 1 12-2.1-3.2-2.2-4-2.1-7.7q0-1.2 0-2.4 0.1-1 0.1-1.9z"/>
	<path class="s180" d="m239 152c2 1.6 2 1.6 4 4 0.3 3.8 0.3 3.8 0 7-2-3.5-3-7.1-4-11z"/>
	<path class="s181" d="m235 141c2 1 2 1 3.2 3.4 0.8 2.6 0.8 2.6-0.2 5.6q0-1 0-2-1.5-0.5-3-1 0-3 0-6z"/>
	<path class="s182" d="m136 105c1.7 1.7 3.3 3.3 5 5q-0.5 1-1 2-1.5 0-3 0c-0.3-2.3-0.7-4.6-1-7z"/>
	<path class="s183" d="m141 106q1 0 2 0 0 2 0 4 1.5 0 3 0 0 1.5 0 3c-1.9-0.7-1.9-0.7-4-2-0.8-2.6-0.8-2.6-1-5z"/>
	<path class="s184" d="m173 77c3 1 5.9 2 9 3q0 1.5 0 3c-3.1-1.5-6.1-3.1-9-5q0-0.5 0-1z"/>
	<path class="s185" d="m144 74q2 1 4 2c-2.3 1.7-4.6 3.3-7 5q0-1.5 0-3 1 0 2 0 0.5-2 1-4z"/>
</svg>