<svg width="289" height="83" viewBox="0 0 289 83" fill="none" xmlns="http://www.w3.org/2000/svg">
<rect x="0.5" y="9.5" width="49" height="49" rx="13.5" stroke="#C2C2C2"/>
<path d="M25 40L19 34L25 28" stroke="#7451A5" stroke-width="2" stroke-linecap="round" stroke-linejoin="round"/>
<path d="M32 40L26 34L32 28" stroke="#F6EEFF" stroke-width="2" stroke-linecap="round" stroke-linejoin="round"/>
<rect x="60.5" y="9.5" width="168" height="50" rx="13.5" stroke="#C2C2C2"/>
<g filter="url(#filter0_d_29_1590)">
<rect x="60" y="9" width="51" height="51" rx="14" fill="#7451A5"/>
</g>
<path d="M146.214 38.21C147.366 37.214 148.272 36.398 148.932 35.762C149.604 35.114 150.162 34.442 150.606 33.746C151.05 33.05 151.272 32.354 151.272 31.658C151.272 30.938 151.098 30.374 150.75 29.966C150.414 29.558 149.88 29.354 149.148 29.354C148.44 29.354 147.888 29.582 147.492 30.038C147.108 30.482 146.904 31.082 146.88 31.838H144.9C144.936 30.47 145.344 29.426 146.124 28.706C146.916 27.974 147.918 27.608 149.13 27.608C150.438 27.608 151.458 27.968 152.19 28.688C152.934 29.408 153.306 30.368 153.306 31.568C153.306 32.432 153.084 33.266 152.64 34.07C152.208 34.862 151.686 35.576 151.074 36.212C150.474 36.836 149.706 37.562 148.77 38.39L147.96 39.11H153.666V40.82H144.918V39.326L146.214 38.21Z" fill="#202020"/>
<path d="M189.044 31.118C189.116 30.002 189.542 29.132 190.322 28.508C191.114 27.884 192.122 27.572 193.346 27.572C194.186 27.572 194.912 27.722 195.524 28.022C196.136 28.322 196.598 28.73 196.91 29.246C197.222 29.762 197.378 30.344 197.378 30.992C197.378 31.736 197.18 32.372 196.784 32.9C196.388 33.428 195.914 33.782 195.362 33.962V34.034C196.07 34.25 196.622 34.646 197.018 35.222C197.414 35.786 197.612 36.512 197.612 37.4C197.612 38.108 197.45 38.738 197.126 39.29C196.802 39.842 196.322 40.28 195.686 40.604C195.05 40.916 194.288 41.072 193.4 41.072C192.104 41.072 191.036 40.742 190.196 40.082C189.368 39.41 188.924 38.45 188.864 37.202H190.844C190.892 37.838 191.138 38.36 191.582 38.768C192.026 39.164 192.626 39.362 193.382 39.362C194.114 39.362 194.678 39.164 195.074 38.768C195.47 38.36 195.668 37.838 195.668 37.202C195.668 36.362 195.398 35.768 194.858 35.42C194.33 35.06 193.514 34.88 192.41 34.88H191.942V33.188H192.428C193.4 33.176 194.138 33.014 194.642 32.702C195.158 32.39 195.416 31.898 195.416 31.226C195.416 30.65 195.23 30.194 194.858 29.858C194.486 29.51 193.958 29.336 193.274 29.336C192.602 29.336 192.08 29.51 191.708 29.858C191.336 30.194 191.114 30.614 191.042 31.118H189.044Z" fill="#202020"/>
<path d="M81.486 30.722V27.86H86.472V41H83.268V30.722H81.486Z" fill="white"/>
<rect x="239.5" y="9.5" width="49" height="49" rx="13.5" stroke="#C2C2C2"/>
<path d="M264 40L270 34L264 28" stroke="#7451A5" stroke-width="2" stroke-linecap="round" stroke-linejoin="round"/>
<path d="M257 40L263 34L257 28" stroke="#F6EEFF" stroke-width="2" stroke-linecap="round" stroke-linejoin="round"/>
<defs>
<filter id="filter0_d_29_1590" x="44" y="0" width="83" height="83" filterUnits="userSpaceOnUse" color-interpolation-filters="sRGB">
<feFlood flood-opacity="0" result="BackgroundImageFix"/>
<feColorMatrix in="SourceAlpha" type="matrix" values="0 0 0 0 0 0 0 0 0 0 0 0 0 0 0 0 0 0 127 0" result="hardAlpha"/>
<feOffset dy="7"/>
<feGaussianBlur stdDeviation="8"/>
<feColorMatrix type="matrix" values="0 0 0 0 0 0 0 0 0 0 0 0 0 0 0 0 0 0 0.14 0"/>
<feBlend mode="normal" in2="BackgroundImageFix" result="effect1_dropShadow_29_1590"/>
<feBlend mode="normal" in="SourceGraphic" in2="effect1_dropShadow_29_1590" result="shape"/>
</filter>
</defs>
</svg>
