<svg width="76" height="76" viewBox="0 0 76 76" fill="none" xmlns="http://www.w3.org/2000/svg">
<g filter="url(#filter0_d_29_1881)">
<rect x="4" width="68" height="68" rx="14" fill="white"/>
</g>
<path d="M34 24H31C29.3431 24 28 25.3432 28 27V30C28 31.6569 29.3431 33 31 33H34C35.6569 33 37 31.6569 37 30V27C37 25.3432 35.6569 24 34 24Z" fill="#7451A5"/>
<path d="M45 24H42C40.3431 24 39 25.3432 39 27V30C39 31.6569 40.3431 33 42 33H45C46.6569 33 48 31.6569 48 30V27C48 25.3432 46.6569 24 45 24Z" fill="#7451A5"/>
<path d="M34 35.0001H31C29.3431 35.0001 28 36.3432 28 38.0001V41.0001C28 42.6569 29.3431 44.0001 31 44.0001H34C35.6569 44.0001 37 42.6569 37 41.0001V38.0001C37 36.3432 35.6569 35.0001 34 35.0001Z" fill="#7451A5"/>
<path d="M45 35.0001H42C40.3431 35.0001 39 36.3432 39 38.0001V41.0001C39 42.6569 40.3431 44.0001 42 44.0001H45C46.6569 44.0001 48 42.6569 48 41.0001V38.0001C48 36.3432 46.6569 35.0001 45 35.0001Z" fill="#7451A5"/>
<defs>
<filter id="filter0_d_29_1881" x="0" y="0" width="76" height="76" filterUnits="userSpaceOnUse" color-interpolation-filters="sRGB">
<feFlood flood-opacity="0" result="BackgroundImageFix"/>
<feColorMatrix in="SourceAlpha" type="matrix" values="0 0 0 0 0 0 0 0 0 0 0 0 0 0 0 0 0 0 127 0" result="hardAlpha"/>
<feOffset dy="4"/>
<feGaussianBlur stdDeviation="2"/>
<feColorMatrix type="matrix" values="0 0 0 0 0 0 0 0 0 0 0 0 0 0 0 0 0 0 0.04 0"/>
<feBlend mode="normal" in2="BackgroundImageFix" result="effect1_dropShadow_29_1881"/>
<feBlend mode="normal" in="SourceGraphic" in2="effect1_dropShadow_29_1881" result="shape"/>
</filter>
</defs>
</svg>
