<svg width="76" height="76" viewBox="0 0 76 76" fill="none" xmlns="http://www.w3.org/2000/svg">
<g filter="url(#filter0_d_29_1889)">
<rect x="4" width="68" height="68" rx="14" fill="white"/>
</g>
<path d="M29 31.75H47V36.25H29V31.75Z" fill="#C2C2C2"/>
<path d="M29 41.5C29 41.8978 29.158 42.2794 29.4393 42.5607C29.7206 42.842 30.1022 43 30.5 43H45.5C45.8978 43 46.2794 42.842 46.5607 42.5607C46.842 42.2794 47 41.8978 47 41.5V37.75H29V41.5Z" fill="#C2C2C2"/>
<path d="M45.5 25H30.5C30.1022 25 29.7206 25.158 29.4393 25.4393C29.158 25.7206 29 26.1022 29 26.5V30.25H47V26.5C47 26.1022 46.842 25.7206 46.5607 25.4393C46.2794 25.158 45.8978 25 45.5 25Z" fill="#C2C2C2"/>
<defs>
<filter id="filter0_d_29_1889" x="0" y="0" width="76" height="76" filterUnits="userSpaceOnUse" color-interpolation-filters="sRGB">
<feFlood flood-opacity="0" result="BackgroundImageFix"/>
<feColorMatrix in="SourceAlpha" type="matrix" values="0 0 0 0 0 0 0 0 0 0 0 0 0 0 0 0 0 0 127 0" result="hardAlpha"/>
<feOffset dy="4"/>
<feGaussianBlur stdDeviation="2"/>
<feColorMatrix type="matrix" values="0 0 0 0 0 0 0 0 0 0 0 0 0 0 0 0 0 0 0.04 0"/>
<feBlend mode="normal" in2="BackgroundImageFix" result="effect1_dropShadow_29_1889"/>
<feBlend mode="normal" in="SourceGraphic" in2="effect1_dropShadow_29_1889" result="shape"/>
</filter>
</defs>
</svg>
